<?xml version="1.0" encoding="UTF-8"?>
<svg xmlns="http://www.w3.org/2000/svg" viewBox="0 0 1056 816" width="1056" height="816">
  <defs>
    <pattern id="insulation-hatch" patternUnits="userSpaceOnUse" width="8" height="8">
      <path d="M0,8 L8,0" stroke="#999999" stroke-width="0.5" fill="none"/>
    </pattern>
    <pattern id="concrete-stipple" patternUnits="userSpaceOnUse" width="10" height="10">
      <circle cx="2" cy="3" r="0.5" fill="#CCCCCC"/>
      <circle cx="7" cy="8" r="0.5" fill="#CCCCCC"/>
      <circle cx="5" cy="1" r="0.5" fill="#CCCCCC"/>
    </pattern>
  </defs>

  <!-- White background -->
  <rect width="1056" height="816" fill="#FFFFFF"/>

  <!-- DRAFT watermark -->
  <text x="528" y="400" font-family="Arial, Helvetica, sans-serif" font-size="48px" fill="#CCCCCC" opacity="0.3" text-anchor="middle" transform="rotate(-25, 528, 400)">DRAFT FOR REVIEW</text>

  <!-- Title -->
  <text x="60" y="50" font-family="Arial, Helvetica, sans-serif" font-size="16px" font-weight="bold" fill="#000000">Barrett PMMA — Primary Roof Drain</text>
  <text x="60" y="68" font-family="Arial, Helvetica, sans-serif" font-size="11px" fill="#333333">Section Detail — Drain sump with PMMA collar and clamping ring</text>

  <!-- ============ MAIN DETAIL ============ -->
  <!-- Concrete deck (with sump depression) -->
  <path d="M80,420 L250,420 L250,430 Q260,470 300,480 L300,520 L380,520 L380,480 Q420,470 430,430 L430,420 L600,420 L600,500 L80,500 Z" fill="#F0F0F0" stroke="#000000" stroke-width="1.5"/>
  <path d="M80,420 L250,420 L250,430 Q260,470 300,480 L300,520 L380,520 L380,480 Q420,470 430,430 L430,420 L600,420 L600,500 L80,500 Z" fill="url(#concrete-stipple)" opacity="0.4"/>

  <!-- Tapered insulation — slopes toward drain -->
  <polygon points="80,370 250,395 250,420 80,420" fill="#E8E8E8" stroke="#000000" stroke-width="1"/>
  <polygon points="80,370 250,395 250,420 80,420" fill="url(#insulation-hatch)"/>
  <polygon points="430,420 430,395 600,370 600,420" fill="#E8E8E8" stroke="#000000" stroke-width="1"/>
  <polygon points="430,420 430,395 600,370 600,420" fill="url(#insulation-hatch)"/>

  <!-- Drain body (recessed into sump) -->
  <rect x="310" y="480" width="60" height="55" fill="#E0E0E0" stroke="#000000" stroke-width="1.5"/>
  <!-- Drain pipe below -->
  <rect x="325" y="535" width="30" height="60" fill="#E0E0E0" stroke="#000000" stroke-width="1.5"/>

  <!-- PMMA membrane — field across top of insulation -->
  <path d="M80,362 L250,387 L250,395 L80,370 Z" fill="#D8D8D8" stroke="#333333" stroke-width="2"/>
  <path d="M430,395 L430,387 L600,362 L600,370 Z" fill="#D8D8D8" stroke="#333333" stroke-width="2"/>

  <!-- PMMA collar around drain (wraps into sump) -->
  <path d="M250,387 L250,428 Q260,465 300,475 L300,480 L310,480 L310,475 Q265,460 255,425 L255,387 Z" fill="#D8D8D8" stroke="#333333" stroke-width="2"/>
  <path d="M430,387 L430,428 Q420,465 380,475 L380,480 L370,480 L370,475 Q415,460 425,425 L425,387 Z" fill="#D8D8D8" stroke="#333333" stroke-width="2"/>

  <!-- Fleece collar (dashed) around drain area -->
  <path d="M240,390 L240,430 Q252,470 298,482" stroke="#333333" stroke-width="1.5" stroke-dasharray="4 2" fill="none"/>
  <path d="M440,390 L440,430 Q428,470 382,482" stroke="#333333" stroke-width="1.5" stroke-dasharray="4 2" fill="none"/>
  <!-- Fleece in field -->
  <line x1="85" y1="366" x2="240" y2="390" stroke="#333333" stroke-width="1.5" stroke-dasharray="4 2"/>
  <line x1="440" y1="390" x2="595" y2="366" stroke="#333333" stroke-width="1.5" stroke-dasharray="4 2"/>

  <!-- Clamping ring -->
  <rect x="295" y="474" width="90" height="8" rx="2" fill="#E0E0E0" stroke="#000000" stroke-width="1.5"/>
  <!-- Bolts on clamping ring -->
  <circle cx="305" cy="478" r="3" fill="#000000" stroke="#000000" stroke-width="0.5"/>
  <circle cx="375" cy="478" r="3" fill="#000000" stroke="#000000" stroke-width="0.5"/>

  <!-- Strainer dome -->
  <path d="M310,474 Q310,430 340,420 Q370,430 370,474" fill="none" stroke="#000000" stroke-width="1.5"/>
  <!-- Dome cross hatching -->
  <line x1="320" y1="468" x2="330" y2="435" stroke="#555555" stroke-width="0.5"/>
  <line x1="340" y1="468" x2="340" y2="420" stroke="#555555" stroke-width="0.5"/>
  <line x1="360" y1="468" x2="350" y2="435" stroke="#555555" stroke-width="0.5"/>
  <line x1="315" y1="455" x2="365" y2="455" stroke="#555555" stroke-width="0.5"/>
  <line x1="318" y1="440" x2="362" y2="440" stroke="#555555" stroke-width="0.5"/>

  <!-- ============ DIMENSION: 4 IN. MIN FLEECE COLLAR ============ -->
  <!-- Left side dimension -->
  <line x1="240" y1="400" x2="255" y2="400" stroke="#666666" stroke-width="0.5" stroke-dasharray="3 2"/>
  <line x1="240" y1="396" x2="240" y2="404" stroke="#666666" stroke-width="0.75"/>
  <line x1="255" y1="396" x2="255" y2="404" stroke="#666666" stroke-width="0.75"/>

  <!-- Main dimension line below -->
  <line x1="200" y1="560" x2="300" y2="560" stroke="#666666" stroke-width="0.5" stroke-dasharray="3 2"/>
  <line x1="200" y1="555" x2="200" y2="565" stroke="#666666" stroke-width="0.75"/>
  <line x1="300" y1="555" x2="300" y2="565" stroke="#666666" stroke-width="0.75"/>
  <!-- Extension lines -->
  <line x1="240" y1="400" x2="200" y2="560" stroke="#666666" stroke-width="0.3" stroke-dasharray="2 2"/>
  <line x1="300" y1="482" x2="300" y2="558" stroke="#666666" stroke-width="0.3" stroke-dasharray="2 2"/>
  <text x="210" y="578" font-family="Arial, Helvetica, sans-serif" font-size="9px" fill="#000000">4 IN. MIN FLEECE COLLAR</text>

  <!-- ============ CALLOUT LEADERS ============ -->
  <!-- 1. Substrate -->
  <circle cx="150" cy="460" r="3" fill="#000000"/>
  <line x1="150" y1="460" x2="100" y2="620" stroke="#000000" stroke-width="0.5"/>
  <text x="85" y="635" font-family="Arial, Helvetica, sans-serif" font-size="10px" fill="#000000">1</text>

  <!-- 2. Tapered Insulation -->
  <circle cx="170" cy="400" r="3" fill="#000000"/>
  <line x1="170" y1="400" x2="140" y2="640" stroke="#000000" stroke-width="0.5"/>
  <text x="125" y="655" font-family="Arial, Helvetica, sans-serif" font-size="10px" fill="#000000">2</text>

  <!-- 3. Sump/Drain Body -->
  <circle cx="340" cy="510" r="3" fill="#000000"/>
  <line x1="340" y1="510" x2="450" y2="620" stroke="#000000" stroke-width="0.5"/>
  <text x="455" y="623" font-family="Arial, Helvetica, sans-serif" font-size="10px" fill="#000000">3</text>

  <!-- 4. PMMA Primer -->
  <circle cx="500" cy="368" r="3" fill="#000000"/>
  <line x1="500" y1="368" x2="550" y2="280" stroke="#000000" stroke-width="0.5"/>
  <text x="555" y="283" font-family="Arial, Helvetica, sans-serif" font-size="10px" fill="#000000">4</text>

  <!-- 5. Fleece Collar -->
  <circle cx="240" cy="430" r="3" fill="#000000"/>
  <line x1="240" y1="430" x2="170" y2="300" stroke="#000000" stroke-width="0.5"/>
  <text x="155" y="296" font-family="Arial, Helvetica, sans-serif" font-size="10px" fill="#000000">5</text>

  <!-- 6. PMMA Membrane -->
  <circle cx="140" cy="366" r="3" fill="#000000"/>
  <line x1="140" y1="366" x2="100" y2="280" stroke="#000000" stroke-width="0.5"/>
  <text x="85" y="276" font-family="Arial, Helvetica, sans-serif" font-size="10px" fill="#000000">6</text>

  <!-- 7. Clamping Ring -->
  <circle cx="340" cy="478" r="3" fill="#FFFFFF" stroke="#000000" stroke-width="0.75"/>
  <line x1="340" y1="478" x2="500" y2="540" stroke="#000000" stroke-width="0.5"/>
  <text x="505" y="543" font-family="Arial, Helvetica, sans-serif" font-size="10px" fill="#000000">7</text>

  <!-- 8. Strainer Dome -->
  <circle cx="340" cy="430" r="3" fill="#000000"/>
  <line x1="340" y1="430" x2="500" y2="320" stroke="#000000" stroke-width="0.5"/>
  <text x="505" y="323" font-family="Arial, Helvetica, sans-serif" font-size="10px" fill="#000000">8</text>

  <!-- ============ CALLOUT LEGEND ============ -->
  <text x="720" y="130" font-family="Arial, Helvetica, sans-serif" font-size="10px" font-weight="bold" fill="#000000">CALLOUT KEY</text>
  <line x1="720" y1="135" x2="870" y2="135" stroke="#000000" stroke-width="0.5"/>

  <circle cx="730" cy="158" r="4" fill="#000000"/>
  <text x="740" y="162" font-family="Arial, Helvetica, sans-serif" font-size="9px" fill="#000000"><tspan font-weight="bold">1</tspan> — Substrate (Concrete Deck)</text>

  <circle cx="730" cy="182" r="4" fill="#000000"/>
  <text x="740" y="186" font-family="Arial, Helvetica, sans-serif" font-size="9px" fill="#000000"><tspan font-weight="bold">2</tspan> — Tapered Insulation</text>

  <circle cx="730" cy="206" r="4" fill="#000000"/>
  <text x="740" y="210" font-family="Arial, Helvetica, sans-serif" font-size="9px" fill="#000000"><tspan font-weight="bold">3</tspan> — Sump / Drain Body</text>

  <circle cx="730" cy="230" r="4" fill="#000000"/>
  <text x="740" y="234" font-family="Arial, Helvetica, sans-serif" font-size="9px" fill="#000000"><tspan font-weight="bold">4</tspan> — PMMA Primer</text>

  <circle cx="730" cy="254" r="4" fill="#000000"/>
  <text x="740" y="258" font-family="Arial, Helvetica, sans-serif" font-size="9px" fill="#000000"><tspan font-weight="bold">5</tspan> — Fleece Collar</text>

  <circle cx="730" cy="278" r="4" fill="#000000"/>
  <text x="740" y="282" font-family="Arial, Helvetica, sans-serif" font-size="9px" fill="#000000"><tspan font-weight="bold">6</tspan> — PMMA Membrane</text>

  <circle cx="730" cy="302" r="4" fill="#000000"/>
  <text x="740" y="306" font-family="Arial, Helvetica, sans-serif" font-size="9px" fill="#000000"><tspan font-weight="bold">7</tspan> — Clamping Ring</text>

  <circle cx="730" cy="326" r="4" fill="#000000"/>
  <text x="740" y="330" font-family="Arial, Helvetica, sans-serif" font-size="9px" fill="#000000"><tspan font-weight="bold">8</tspan> — Strainer Dome</text>

  <!-- ============ TITLE BLOCK ============ -->
  <line x1="40" y1="760" x2="1016" y2="760" stroke="#000000" stroke-width="0.75"/>
  <text x="50" y="778" font-family="Arial, Helvetica, sans-serif" font-size="11px" font-weight="bold" fill="#000000">DETAIL ATLAS</text>
  <text x="50" y="792" font-family="Arial, Helvetica, sans-serif" font-size="9px" fill="#000000">CONSTRUCTION INTELLIGENCE</text>
  <text x="440" y="778" font-family="Arial, Helvetica, sans-serif" font-size="9px" fill="#000000" text-anchor="middle">Barrett Company — RamFlash PMMA</text>
  <text x="1010" y="778" font-family="Arial, Helvetica, sans-serif" font-size="9px" fill="#000000" text-anchor="end">DRAFT | 2026-04-16</text>
  <text x="528" y="805" font-family="Arial, Helvetica, sans-serif" font-size="8px" fill="#666666" text-anchor="middle">CSI 07 62 00 | FAM-BARRETT-PMMA | Emergency Detail Delivery</text>
</svg>