<?xml version="1.0" encoding="UTF-8"?>
<svg xmlns="http://www.w3.org/2000/svg" viewBox="0 0 1056 816" width="1056" height="816">
  <defs>
    <pattern id="concrete-stipple" patternUnits="userSpaceOnUse" width="10" height="10">
      <circle cx="2" cy="3" r="0.5" fill="#CCCCCC"/>
      <circle cx="7" cy="8" r="0.5" fill="#CCCCCC"/>
      <circle cx="5" cy="1" r="0.5" fill="#CCCCCC"/>
    </pattern>
    <pattern id="fleece-diagonal" patternUnits="userSpaceOnUse" width="6" height="6">
      <path d="M0,6 L6,0" stroke="#333333" stroke-width="0.75" fill="none"/>
    </pattern>
  </defs>

  <!-- White background -->
  <rect width="1056" height="816" fill="#FFFFFF"/>

  <!-- DRAFT watermark -->
  <text x="528" y="400" font-family="Arial, Helvetica, sans-serif" font-size="48px" fill="#CCCCCC" opacity="0.3" text-anchor="middle" transform="rotate(-25, 528, 400)">DRAFT FOR REVIEW</text>

  <!-- Title -->
  <text x="60" y="50" font-family="Arial, Helvetica, sans-serif" font-size="16px" font-weight="bold" fill="#000000">Barrett PMMA — Crack / Control Joint</text>
  <text x="60" y="68" font-family="Arial, Helvetica, sans-serif" font-size="11px" fill="#333333">Section Detail — PMMA membrane bridging substrate joint with fleece reinforcement</text>

  <!-- ============ MAIN DETAIL ============ -->
  <!-- Left substrate block -->
  <rect x="100" y="340" width="240" height="140" fill="#F0F0F0" stroke="#000000" stroke-width="1.5"/>
  <rect x="100" y="340" width="240" height="140" fill="url(#concrete-stipple)" opacity="0.4"/>

  <!-- Right substrate block -->
  <rect x="350" y="340" width="240" height="140" fill="#F0F0F0" stroke="#000000" stroke-width="1.5"/>
  <rect x="350" y="340" width="240" height="140" fill="url(#concrete-stipple)" opacity="0.4"/>

  <!-- Joint/crack gap between blocks -->
  <rect x="340" y="340" width="10" height="140" fill="#FAFAFA" stroke="#000000" stroke-width="0.75"/>
  <!-- Joint line -->
  <line x1="345" y1="340" x2="345" y2="480" stroke="#000000" stroke-width="0.5" stroke-dasharray="2 2"/>

  <!-- Backer rod in joint -->
  <circle cx="345" cy="360" r="6" fill="#E8E8E8" stroke="#000000" stroke-width="1"/>
  <line x1="340" y1="356" x2="350" y2="364" stroke="#555555" stroke-width="0.5"/>
  <line x1="340" y1="364" x2="350" y2="356" stroke="#555555" stroke-width="0.5"/>

  <!-- PMMA Primer zone (thin dashed) on substrate surface -->
  <line x1="200" y1="338" x2="340" y2="338" stroke="#333333" stroke-width="0.75" stroke-dasharray="2 1"/>
  <line x1="350" y1="338" x2="490" y2="338" stroke="#333333" stroke-width="0.75" stroke-dasharray="2 1"/>

  <!-- PMMA membrane — bridging the joint -->
  <rect x="200" y="326" width="290" height="8" fill="#D8D8D8" stroke="#333333" stroke-width="2"/>

  <!-- Fleece strip centered over joint (dashed pattern, wider band) -->
  <rect x="255" y="328" width="180" height="4" fill="url(#fleece-diagonal)" stroke="#333333" stroke-width="1.5" stroke-dasharray="4 2"/>

  <!-- PMMA Seal coat on top -->
  <rect x="200" y="322" width="290" height="4" fill="#D8D8D8" stroke="#333333" stroke-width="1" opacity="0.6"/>

  <!-- ============ DIMENSIONS ============ -->
  <!-- Total width: 6 IN. (3 IN. each side) -->
  <line x1="200" y1="300" x2="490" y2="300" stroke="#666666" stroke-width="0.5" stroke-dasharray="3 2"/>
  <line x1="200" y1="295" x2="200" y2="305" stroke="#666666" stroke-width="0.75"/>
  <line x1="490" y1="295" x2="490" y2="305" stroke="#666666" stroke-width="0.75"/>
  <!-- Center tick -->
  <line x1="345" y1="295" x2="345" y2="305" stroke="#666666" stroke-width="0.75"/>
  <!-- Extension lines -->
  <line x1="200" y1="322" x2="200" y2="303" stroke="#666666" stroke-width="0.3" stroke-dasharray="2 2"/>
  <line x1="490" y1="322" x2="490" y2="303" stroke="#666666" stroke-width="0.3" stroke-dasharray="2 2"/>
  <line x1="345" y1="322" x2="345" y2="303" stroke="#666666" stroke-width="0.3" stroke-dasharray="2 2"/>
  <text x="238" y="292" font-family="Arial, Helvetica, sans-serif" font-size="9px" fill="#000000">3 IN.</text>
  <text x="393" y="292" font-family="Arial, Helvetica, sans-serif" font-size="9px" fill="#000000">3 IN.</text>
  <text x="290" y="278" font-family="Arial, Helvetica, sans-serif" font-size="9px" fill="#000000" font-weight="bold">6 IN. TOTAL WIDTH</text>

  <!-- ============ CALLOUT LEADERS ============ -->
  <!-- 1. Substrate -->
  <circle cx="180" cy="400" r="3" fill="#000000"/>
  <line x1="180" y1="400" x2="120" y2="540" stroke="#000000" stroke-width="0.5"/>
  <text x="105" y="555" font-family="Arial, Helvetica, sans-serif" font-size="10px" fill="#000000">1</text>

  <!-- 2. Joint/Crack -->
  <circle cx="345" cy="420" r="3" fill="#000000"/>
  <line x1="345" y1="420" x2="345" y2="550" stroke="#000000" stroke-width="0.5"/>
  <line x1="345" y1="550" x2="290" y2="550" stroke="#000000" stroke-width="0.5"/>
  <text x="275" y="553" font-family="Arial, Helvetica, sans-serif" font-size="10px" fill="#000000">2</text>

  <!-- 3. Backer Rod -->
  <circle cx="360" cy="360" r="3" fill="#000000"/>
  <line x1="360" y1="360" x2="420" y2="540" stroke="#000000" stroke-width="0.5"/>
  <text x="425" y="555" font-family="Arial, Helvetica, sans-serif" font-size="10px" fill="#000000">3</text>

  <!-- 4. PMMA Primer -->
  <circle cx="220" cy="336" r="3" fill="#000000"/>
  <line x1="220" y1="336" x2="130" y2="230" stroke="#000000" stroke-width="0.5"/>
  <text x="115" y="226" font-family="Arial, Helvetica, sans-serif" font-size="10px" fill="#000000">4</text>

  <!-- 5. Fleece Strip -->
  <circle cx="345" cy="330" r="3" fill="#FFFFFF" stroke="#000000" stroke-width="0.75"/>
  <line x1="345" y1="330" x2="450" y2="240" stroke="#000000" stroke-width="0.5"/>
  <text x="455" y="243" font-family="Arial, Helvetica, sans-serif" font-size="10px" fill="#000000">5</text>

  <!-- 6. PMMA Membrane -->
  <circle cx="460" cy="328" r="3" fill="#000000"/>
  <line x1="460" y1="328" x2="510" y2="240" stroke="#000000" stroke-width="0.5"/>
  <text x="515" y="243" font-family="Arial, Helvetica, sans-serif" font-size="10px" fill="#000000">6</text>

  <!-- ============ ENLARGED DETAIL INSET ============ -->
  <circle cx="345" cy="370" r="50" fill="none" stroke="#000000" stroke-width="0.75" stroke-dasharray="4 2"/>
  <line x1="380" y1="335" x2="530" y2="520" stroke="#000000" stroke-width="0.5"/>

  <!-- Enlarged inset box -->
  <rect x="510" y="490" width="150" height="130" fill="#FFFFFF" stroke="#000000" stroke-width="1"/>
  <text x="585" y="508" font-family="Arial, Helvetica, sans-serif" font-size="8px" fill="#000000" text-anchor="middle" font-weight="bold">ENLARGED JOINT DETAIL</text>

  <!-- Enlarged content -->
  <rect x="520" y="545" width="50" height="60" fill="#F0F0F0" stroke="#000000" stroke-width="1"/>
  <rect x="590" y="545" width="50" height="60" fill="#F0F0F0" stroke="#000000" stroke-width="1"/>
  <rect x="570" y="545" width="20" height="60" fill="#FAFAFA" stroke="#000000" stroke-width="0.5"/>
  <circle cx="580" cy="560" r="7" fill="#E8E8E8" stroke="#000000" stroke-width="0.75"/>
  <rect x="530" y="533" width="100" height="6" fill="#D8D8D8" stroke="#333333" stroke-width="1"/>
  <line x1="545" y1="536" x2="615" y2="536" stroke="#333333" stroke-width="1.5" stroke-dasharray="3 1.5"/>
  <text x="635" y="540" font-family="Arial, Helvetica, sans-serif" font-size="7px" fill="#000000">PMMA</text>
  <text x="635" y="565" font-family="Arial, Helvetica, sans-serif" font-size="7px" fill="#000000">BACKER</text>
  <text x="635" y="573" font-family="Arial, Helvetica, sans-serif" font-size="7px" fill="#000000">ROD</text>

  <!-- ============ CALLOUT LEGEND ============ -->
  <text x="720" y="130" font-family="Arial, Helvetica, sans-serif" font-size="10px" font-weight="bold" fill="#000000">CALLOUT KEY</text>
  <line x1="720" y1="135" x2="870" y2="135" stroke="#000000" stroke-width="0.5"/>

  <circle cx="730" cy="158" r="4" fill="#000000"/>
  <text x="740" y="162" font-family="Arial, Helvetica, sans-serif" font-size="9px" fill="#000000"><tspan font-weight="bold">1</tspan> — Substrate</text>

  <circle cx="730" cy="182" r="4" fill="#000000"/>
  <text x="740" y="186" font-family="Arial, Helvetica, sans-serif" font-size="9px" fill="#000000"><tspan font-weight="bold">2</tspan> — Joint / Crack</text>

  <circle cx="730" cy="206" r="4" fill="#000000"/>
  <text x="740" y="210" font-family="Arial, Helvetica, sans-serif" font-size="9px" fill="#000000"><tspan font-weight="bold">3</tspan> — Backer Rod</text>

  <circle cx="730" cy="230" r="4" fill="#000000"/>
  <text x="740" y="234" font-family="Arial, Helvetica, sans-serif" font-size="9px" fill="#000000"><tspan font-weight="bold">4</tspan> — PMMA Primer</text>

  <circle cx="730" cy="254" r="4" fill="#000000"/>
  <text x="740" y="258" font-family="Arial, Helvetica, sans-serif" font-size="9px" fill="#000000"><tspan font-weight="bold">5</tspan> — Fleece Strip</text>

  <circle cx="730" cy="278" r="4" fill="#000000"/>
  <text x="740" y="282" font-family="Arial, Helvetica, sans-serif" font-size="9px" fill="#000000"><tspan font-weight="bold">6</tspan> — PMMA Membrane</text>

  <!-- ============ TITLE BLOCK ============ -->
  <line x1="40" y1="760" x2="1016" y2="760" stroke="#000000" stroke-width="0.75"/>
  <text x="50" y="778" font-family="Arial, Helvetica, sans-serif" font-size="11px" font-weight="bold" fill="#000000">DETAIL ATLAS</text>
  <text x="50" y="792" font-family="Arial, Helvetica, sans-serif" font-size="9px" fill="#000000">CONSTRUCTION INTELLIGENCE</text>
  <text x="440" y="778" font-family="Arial, Helvetica, sans-serif" font-size="9px" fill="#000000" text-anchor="middle">Barrett Company — RamFlash PMMA</text>
  <text x="1010" y="778" font-family="Arial, Helvetica, sans-serif" font-size="9px" fill="#000000" text-anchor="end">DRAFT | 2026-04-16</text>
  <text x="528" y="805" font-family="Arial, Helvetica, sans-serif" font-size="8px" fill="#666666" text-anchor="middle">CSI 07 62 00 | FAM-BARRETT-PMMA | Emergency Detail Delivery</text>
</svg>