<?xml version="1.0" encoding="UTF-8"?>
<svg xmlns="http://www.w3.org/2000/svg" viewBox="0 0 1056 816" width="1056" height="816">
  <defs>
    <pattern id="concrete-stipple" patternUnits="userSpaceOnUse" width="10" height="10">
      <circle cx="2" cy="3" r="0.5" fill="#CCCCCC"/>
      <circle cx="7" cy="8" r="0.5" fill="#CCCCCC"/>
      <circle cx="5" cy="1" r="0.5" fill="#CCCCCC"/>
    </pattern>
    <pattern id="tile-hatch" patternUnits="userSpaceOnUse" width="30" height="15">
      <rect x="0" y="0" width="14" height="14" fill="#E0E0E0" stroke="#AAAAAA" stroke-width="0.5"/>
      <rect x="15" y="0" width="14" height="14" fill="#E0E0E0" stroke="#AAAAAA" stroke-width="0.5"/>
    </pattern>
    <pattern id="mortar-dots" patternUnits="userSpaceOnUse" width="8" height="8">
      <circle cx="2" cy="2" r="0.7" fill="#BBBBBB"/>
      <circle cx="6" cy="6" r="0.7" fill="#BBBBBB"/>
    </pattern>
    <pattern id="insulation-hatch" patternUnits="userSpaceOnUse" width="8" height="8">
      <path d="M0,8 L8,0" stroke="#999999" stroke-width="0.5" fill="none"/>
    </pattern>
  </defs>

  <!-- White background -->
  <rect width="1056" height="816" fill="#FFFFFF"/>

  <!-- DRAFT watermark -->
  <text x="528" y="400" font-family="Arial, Helvetica, sans-serif" font-size="48px" fill="#CCCCCC" opacity="0.3" text-anchor="middle" transform="rotate(-25, 528, 400)">DRAFT FOR REVIEW</text>

  <!-- Title -->
  <text x="60" y="50" font-family="Arial, Helvetica, sans-serif" font-size="16px" font-weight="bold" fill="#000000">Barrett PMMA — Tile / Overburden Assembly</text>
  <text x="60" y="68" font-family="Arial, Helvetica, sans-serif" font-size="11px" fill="#333333">Section Detail — Full assembly stack with PMMA waterproofing below tile/paver overburden</text>

  <!-- ============ MAIN DETAIL — LAYERED STACK ============ -->
  <!-- Layer positions (bottom to top): -->
  <!-- Structural slab: y=520 to y=590 (70px) -->
  <!-- PMMA system: y=505 to y=520 (15px) -->
  <!-- Protection board: y=485 to y=505 (20px) -->
  <!-- Insulation/drainage: y=450 to y=485 (35px) -->
  <!-- Mortar bed: y=420 to y=450 (30px) -->
  <!-- Tile/Pavers: y=395 to y=420 (25px) -->

  <!-- 1. Structural slab -->
  <rect x="120" y="520" width="460" height="70" fill="#F0F0F0" stroke="#000000" stroke-width="1.5"/>
  <rect x="120" y="520" width="460" height="70" fill="url(#concrete-stipple)" opacity="0.5"/>

  <!-- 2. PMMA Primer (thin line at interface) -->
  <line x1="120" y1="518" x2="580" y2="518" stroke="#333333" stroke-width="0.75" stroke-dasharray="2 1"/>

  <!-- 3. PMMA Membrane system -->
  <rect x="120" y="505" width="460" height="15" fill="#D8D8D8" stroke="#333333" stroke-width="2"/>
  <!-- Fleece inside PMMA -->
  <line x1="125" y1="512" x2="575" y2="512" stroke="#333333" stroke-width="1.5" stroke-dasharray="4 2"/>

  <!-- 4. Protection board -->
  <rect x="120" y="485" width="460" height="20" fill="#E8E8E8" stroke="#000000" stroke-width="1"/>
  <!-- Cross-hatch for protection board -->
  <line x1="120" y1="485" x2="580" y2="505" stroke="#CCCCCC" stroke-width="0.5"/>
  <line x1="120" y1="505" x2="580" y2="485" stroke="#CCCCCC" stroke-width="0.5"/>

  <!-- 5. Insulation / Drainage mat -->
  <rect x="120" y="450" width="460" height="35" fill="#E8E8E8" stroke="#000000" stroke-width="1"/>
  <rect x="120" y="450" width="460" height="35" fill="url(#insulation-hatch)"/>

  <!-- 6. Mortar bed -->
  <rect x="120" y="420" width="460" height="30" fill="#ECECEC" stroke="#000000" stroke-width="1"/>
  <rect x="120" y="420" width="460" height="30" fill="url(#mortar-dots)"/>

  <!-- 7. Tile/Pavers -->
  <rect x="120" y="395" width="460" height="25" fill="url(#tile-hatch)" stroke="#000000" stroke-width="1.5"/>
  <!-- Individual tile lines -->
  <line x1="180" y1="395" x2="180" y2="420" stroke="#999999" stroke-width="0.5"/>
  <line x1="240" y1="395" x2="240" y2="420" stroke="#999999" stroke-width="0.5"/>
  <line x1="300" y1="395" x2="300" y2="420" stroke="#999999" stroke-width="0.5"/>
  <line x1="360" y1="395" x2="360" y2="420" stroke="#999999" stroke-width="0.5"/>
  <line x1="420" y1="395" x2="420" y2="420" stroke="#999999" stroke-width="0.5"/>
  <line x1="480" y1="395" x2="480" y2="420" stroke="#999999" stroke-width="0.5"/>
  <line x1="540" y1="395" x2="540" y2="420" stroke="#999999" stroke-width="0.5"/>

  <!-- Slope arrow pointing to drain (right side) -->
  <line x1="180" y1="380" x2="520" y2="380" stroke="#000000" stroke-width="1"/>
  <polygon points="520,376 530,380 520,384" fill="#000000"/>
  <text x="320" y="375" font-family="Arial, Helvetica, sans-serif" font-size="8px" fill="#000000" text-anchor="middle">SLOPE TO DRAIN</text>
  <!-- Slope percentage -->
  <text x="320" y="365" font-family="Arial, Helvetica, sans-serif" font-size="7px" fill="#666666" text-anchor="middle">1/4 IN. PER FT MIN</text>

  <!-- ============ LAYER LABELS (left side bracket notation) ============ -->
  <!-- Layer bracket lines -->
  <!-- Structural slab -->
  <line x1="105" y1="522" x2="105" y2="588" stroke="#000000" stroke-width="0.5"/>
  <line x1="105" y1="522" x2="115" y2="522" stroke="#000000" stroke-width="0.5"/>
  <line x1="105" y1="588" x2="115" y2="588" stroke="#000000" stroke-width="0.5"/>

  <!-- PMMA system -->
  <line x1="105" y1="507" x2="105" y2="518" stroke="#000000" stroke-width="0.5"/>
  <line x1="105" y1="507" x2="115" y2="507" stroke="#000000" stroke-width="0.5"/>
  <line x1="105" y1="518" x2="115" y2="518" stroke="#000000" stroke-width="0.5"/>

  <!-- ============ NOTE: HYPPOCOAT 250 ============ -->
  <rect x="120" y="630" width="350" height="30" rx="3" fill="#FAFAFA" stroke="#000000" stroke-width="0.75"/>
  <text x="135" y="648" font-family="Arial, Helvetica, sans-serif" font-size="9px" fill="#000000" font-weight="bold">NOTE:</text>
  <text x="170" y="648" font-family="Arial, Helvetica, sans-serif" font-size="9px" fill="#000000">HYPPOCOAT 250 for parking deck variant</text>

  <!-- ============ CALLOUT LEADERS ============ -->
  <!-- 1. Structural Slab -->
  <circle cx="350" cy="555" r="3" fill="#000000"/>
  <line x1="350" y1="555" x2="600" y2="555" stroke="#000000" stroke-width="0.5"/>
  <text x="605" y="558" font-family="Arial, Helvetica, sans-serif" font-size="10px" fill="#000000">1</text>

  <!-- 2. PMMA Primer -->
  <circle cx="350" cy="518" r="3" fill="#000000"/>
  <line x1="350" y1="518" x2="600" y2="530" stroke="#000000" stroke-width="0.5"/>
  <text x="605" y="533" font-family="Arial, Helvetica, sans-serif" font-size="10px" fill="#000000">2</text>

  <!-- 3. PMMA Membrane -->
  <circle cx="400" cy="510" r="3" fill="#000000"/>
  <line x1="400" y1="510" x2="600" y2="510" stroke="#000000" stroke-width="0.5"/>
  <text x="605" y="513" font-family="Arial, Helvetica, sans-serif" font-size="10px" fill="#000000">3</text>

  <!-- 4. Fleece -->
  <circle cx="450" cy="512" r="3" fill="#FFFFFF" stroke="#000000" stroke-width="0.75"/>
  <line x1="450" y1="512" x2="600" y2="490" stroke="#000000" stroke-width="0.5"/>
  <text x="605" y="493" font-family="Arial, Helvetica, sans-serif" font-size="10px" fill="#000000">4</text>

  <!-- 5. Protection Board -->
  <circle cx="350" cy="495" r="3" fill="#000000"/>
  <line x1="350" y1="495" x2="600" y2="470" stroke="#000000" stroke-width="0.5"/>
  <text x="605" y="473" font-family="Arial, Helvetica, sans-serif" font-size="10px" fill="#000000">5</text>

  <!-- 6. Insulation/Drainage -->
  <circle cx="350" cy="467" r="3" fill="#000000"/>
  <line x1="350" y1="467" x2="600" y2="450" stroke="#000000" stroke-width="0.5"/>
  <text x="605" y="453" font-family="Arial, Helvetica, sans-serif" font-size="10px" fill="#000000">6</text>

  <!-- 7. Mortar Bed -->
  <circle cx="350" cy="435" r="3" fill="#000000"/>
  <line x1="350" y1="435" x2="600" y2="430" stroke="#000000" stroke-width="0.5"/>
  <text x="605" y="433" font-family="Arial, Helvetica, sans-serif" font-size="10px" fill="#000000">7</text>

  <!-- 8. Tile/Pavers -->
  <circle cx="350" cy="407" r="3" fill="#000000"/>
  <line x1="350" y1="407" x2="600" y2="410" stroke="#000000" stroke-width="0.5"/>
  <text x="605" y="413" font-family="Arial, Helvetica, sans-serif" font-size="10px" fill="#000000">8</text>

  <!-- ============ CALLOUT LEGEND ============ -->
  <text x="720" y="130" font-family="Arial, Helvetica, sans-serif" font-size="10px" font-weight="bold" fill="#000000">CALLOUT KEY</text>
  <line x1="720" y1="135" x2="900" y2="135" stroke="#000000" stroke-width="0.5"/>

  <circle cx="730" cy="158" r="4" fill="#000000"/>
  <text x="740" y="162" font-family="Arial, Helvetica, sans-serif" font-size="9px" fill="#000000"><tspan font-weight="bold">1</tspan> — Structural Slab</text>

  <circle cx="730" cy="182" r="4" fill="#000000"/>
  <text x="740" y="186" font-family="Arial, Helvetica, sans-serif" font-size="9px" fill="#000000"><tspan font-weight="bold">2</tspan> — PMMA Primer</text>

  <circle cx="730" cy="206" r="4" fill="#000000"/>
  <text x="740" y="210" font-family="Arial, Helvetica, sans-serif" font-size="9px" fill="#000000"><tspan font-weight="bold">3</tspan> — PMMA Membrane (Base + Seal)</text>

  <circle cx="730" cy="230" r="4" fill="#000000"/>
  <text x="740" y="234" font-family="Arial, Helvetica, sans-serif" font-size="9px" fill="#000000"><tspan font-weight="bold">4</tspan> — Fleece Reinforcement</text>

  <circle cx="730" cy="254" r="4" fill="#000000"/>
  <text x="740" y="258" font-family="Arial, Helvetica, sans-serif" font-size="9px" fill="#000000"><tspan font-weight="bold">5</tspan> — Protection Board</text>

  <circle cx="730" cy="278" r="4" fill="#000000"/>
  <text x="740" y="282" font-family="Arial, Helvetica, sans-serif" font-size="9px" fill="#000000"><tspan font-weight="bold">6</tspan> — Insulation / Drainage Mat</text>

  <circle cx="730" cy="302" r="4" fill="#000000"/>
  <text x="740" y="306" font-family="Arial, Helvetica, sans-serif" font-size="9px" fill="#000000"><tspan font-weight="bold">7</tspan> — Mortar Bed</text>

  <circle cx="730" cy="326" r="4" fill="#000000"/>
  <text x="740" y="330" font-family="Arial, Helvetica, sans-serif" font-size="9px" fill="#000000"><tspan font-weight="bold">8</tspan> — Tile / Pavers</text>

  <!-- ============ TITLE BLOCK ============ -->
  <line x1="40" y1="760" x2="1016" y2="760" stroke="#000000" stroke-width="0.75"/>
  <text x="50" y="778" font-family="Arial, Helvetica, sans-serif" font-size="11px" font-weight="bold" fill="#000000">DETAIL ATLAS</text>
  <text x="50" y="792" font-family="Arial, Helvetica, sans-serif" font-size="9px" fill="#000000">CONSTRUCTION INTELLIGENCE</text>
  <text x="440" y="778" font-family="Arial, Helvetica, sans-serif" font-size="9px" fill="#000000" text-anchor="middle">Barrett Company — RamFlash PMMA</text>
  <text x="1010" y="778" font-family="Arial, Helvetica, sans-serif" font-size="9px" fill="#000000" text-anchor="end">DRAFT | 2026-04-16</text>
  <text x="528" y="805" font-family="Arial, Helvetica, sans-serif" font-size="8px" fill="#666666" text-anchor="middle">CSI 07 62 00 | FAM-BARRETT-PMMA | Emergency Detail Delivery</text>
</svg>