<?xml version="1.0" encoding="UTF-8"?>
<svg xmlns="http://www.w3.org/2000/svg" viewBox="0 0 1056 816" width="1056" height="816">
  <defs>
    <pattern id="concrete-stipple" patternUnits="userSpaceOnUse" width="10" height="10">
      <circle cx="2" cy="3" r="0.5" fill="#CCCCCC"/>
      <circle cx="7" cy="8" r="0.5" fill="#CCCCCC"/>
      <circle cx="5" cy="1" r="0.5" fill="#CCCCCC"/>
    </pattern>
    <pattern id="insulation-hatch" patternUnits="userSpaceOnUse" width="8" height="8">
      <path d="M0,8 L8,0" stroke="#999999" stroke-width="0.5" fill="none"/>
    </pattern>
    <pattern id="fleece-diagonal" patternUnits="userSpaceOnUse" width="6" height="6">
      <path d="M0,6 L6,0" stroke="#333333" stroke-width="0.75" fill="none"/>
    </pattern>
  </defs>
  <rect width="1056" height="816" fill="#FFFFFF"/>
  <text x="528" y="408" font-family="Arial, Helvetica, sans-serif" font-size="48" fill="#CCC" opacity="0.3" text-anchor="middle" transform="rotate(-25 528 408)">DRAFT FOR REVIEW</text>
  <text x="60" y="40" font-family="Arial, Helvetica, sans-serif" font-size="16" font-weight="bold" fill="#000">GCP VPS30 — Wall Field Application</text>
  <text x="60" y="58" font-family="Arial, Helvetica, sans-serif" font-size="11" fill="#333">Section Detail — Rendered from parametric geometry (v3)</text>
  <line x1="60" y1="66" x2="620" y2="66" stroke="#000" stroke-width="0.5"/>
  <rect x="271.0" y="213.0" width="60.0" height="400.0" fill="#F0F0F0" stroke="#000000" stroke-width="1.5"/>
  <rect x="271.0" y="213.0" width="60.0" height="400.0" fill="url(#concrete-stipple)" opacity="0.4"/>
  <text x="301.0" y="416.0" font-family="Arial, Helvetica, sans-serif" font-size="8" fill="#555" text-anchor="middle">Steel Stud Wall</text>
  <rect x="331.0" y="213.0" width="30.0" height="400.0" fill="#E8E8E8" stroke="#000000" stroke-width="1"/>
  <rect x="331.0" y="213.0" width="30.0" height="400.0" fill="url(#insulation-hatch)" opacity="0.4"/>
  <text x="346.0" y="416.0" font-family="Arial, Helvetica, sans-serif" font-size="8" fill="#555" text-anchor="middle">Sheathing</text>
  <rect x="361.0" y="213.0" width="8.0" height="400.0" fill="#D8D8D8" stroke="#333333" stroke-width="2"/>
  <text x="365.0" y="416.0" font-family="Arial, Helvetica, sans-serif" font-size="8" fill="#555" text-anchor="middle">VPS30 Membrane</text>
  <rect x="369.0" y="213.0" width="60.0" height="400.0" fill="#FAFAFA" stroke="#000000" stroke-width="0.75"/>
  <text x="399.0" y="416.0" font-family="Arial, Helvetica, sans-serif" font-size="8" fill="#555" text-anchor="middle">Cladding Cavity</text>
  <rect x="429.0" y="213.0" width="40.0" height="400.0" fill="#FAFAFA" stroke="#000000" stroke-width="0.75"/>
  <text x="449.0" y="416.0" font-family="Arial, Helvetica, sans-serif" font-size="8" fill="#555" text-anchor="middle">Cladding</text>
  <line x1="471.0" y1="213.0" x2="486.0" y2="213.0" stroke="#666" stroke-width="0.3" stroke-dasharray="2 2"/>
  <line x1="471.0" y1="613.0" x2="486.0" y2="613.0" stroke="#666" stroke-width="0.3" stroke-dasharray="2 2"/>
  <line x1="496.0" y1="213.0" x2="496.0" y2="613.0" stroke="#666" stroke-width="0.5" stroke-dasharray="3 2"/>
  <line x1="492.0" y1="213.0" x2="500.0" y2="213.0" stroke="#666" stroke-width="0.75"/>
  <line x1="492.0" y1="613.0" x2="500.0" y2="613.0" stroke="#666" stroke-width="0.75"/>
  <text x="504.0" y="416.0" font-family="Arial, Helvetica, sans-serif" font-size="9" fill="#000">FULL HEIGHT</text>
  <text x="700" y="130" font-family="Arial, Helvetica, sans-serif" font-size="10" font-weight="bold" fill="#000">CALLOUT KEY</text>
  <line x1="700" y1="135" x2="920" y2="135" stroke="#000" stroke-width="0.5"/>
  <circle cx="301.0" cy="413.0" r="3" fill="#000"/>
  <line x1="301.0" y1="413.0" x2="690.0" y2="155.0" stroke="#000" stroke-width="0.5"/>
  <circle cx="706" cy="152" r="4" fill="#000"/>
  <text x="706" y="155" font-family="Arial, Helvetica, sans-serif" font-size="7" fill="#FFF" text-anchor="middle" font-weight="bold">1</text>
  <text x="716" y="155" font-family="Arial, Helvetica, sans-serif" font-size="9" fill="#000">Steel Studs</text>
  <circle cx="346.0" cy="413.0" r="3" fill="#000"/>
  <line x1="346.0" y1="413.0" x2="690.0" y2="177.0" stroke="#000" stroke-width="0.5"/>
  <circle cx="706" cy="174" r="4" fill="#000"/>
  <text x="706" y="177" font-family="Arial, Helvetica, sans-serif" font-size="7" fill="#FFF" text-anchor="middle" font-weight="bold">2</text>
  <text x="716" y="177" font-family="Arial, Helvetica, sans-serif" font-size="9" fill="#000">Sheathing</text>
  <circle cx="365.0" cy="413.0" r="3" fill="#000"/>
  <line x1="365.0" y1="413.0" x2="690.0" y2="199.0" stroke="#000" stroke-width="0.5"/>
  <circle cx="706" cy="196" r="4" fill="#000"/>
  <text x="706" y="199" font-family="Arial, Helvetica, sans-serif" font-size="7" fill="#FFF" text-anchor="middle" font-weight="bold">3</text>
  <text x="716" y="199" font-family="Arial, Helvetica, sans-serif" font-size="9" fill="#000">VPS30 AVB</text>
  <circle cx="399.0" cy="413.0" r="3" fill="#000"/>
  <line x1="399.0" y1="413.0" x2="690.0" y2="221.0" stroke="#000" stroke-width="0.5"/>
  <circle cx="706" cy="218" r="4" fill="#000"/>
  <text x="706" y="221" font-family="Arial, Helvetica, sans-serif" font-size="7" fill="#FFF" text-anchor="middle" font-weight="bold">4</text>
  <text x="716" y="221" font-family="Arial, Helvetica, sans-serif" font-size="9" fill="#000">Cavity</text>
  <circle cx="449.0" cy="413.0" r="3" fill="#000"/>
  <line x1="449.0" y1="413.0" x2="690.0" y2="243.0" stroke="#000" stroke-width="0.5"/>
  <circle cx="706" cy="240" r="4" fill="#000"/>
  <text x="706" y="243" font-family="Arial, Helvetica, sans-serif" font-size="7" fill="#FFF" text-anchor="middle" font-weight="bold">5</text>
  <text x="716" y="243" font-family="Arial, Helvetica, sans-serif" font-size="9" fill="#000">Cladding</text>
  <rect x="60" y="700" width="400" height="22" rx="3" fill="#FAFAFA" stroke="#000" stroke-width="0.75"/>
  <text x="68" y="715" font-family="Arial, Helvetica, sans-serif" font-size="8" fill="#000"><tspan font-weight="bold">NOTE: </tspan>Self-adhered vapor permeable air barrier</text>
  <rect x="60" y="672" width="400" height="22" rx="3" fill="#FAFAFA" stroke="#000" stroke-width="0.75"/>
  <text x="68" y="687" font-family="Arial, Helvetica, sans-serif" font-size="8" fill="#000"><tspan font-weight="bold">NOTE: </tspan>Lap joints min 2 in. shingle fashion</text>
  <line x1="60" y1="760" x2="996" y2="760" stroke="#000" stroke-width="0.75"/>
  <text x="60" y="778" font-family="Arial, Helvetica, sans-serif" font-size="11" font-weight="bold" fill="#000">DETAIL ATLAS</text>
  <text x="190" y="778" font-family="Arial, Helvetica, sans-serif" font-size="9" fill="#333">CONSTRUCTION INTELLIGENCE</text>
  <text x="450" y="778" font-family="Arial, Helvetica, sans-serif" font-size="9" fill="#333">Perm-A-Barrier VPS30 | AVB-WF-01</text>
  <text x="876" y="778" font-family="Arial, Helvetica, sans-serif" font-size="9" fill="#333">DRAFT | 2026-04-16</text>
  <text x="60" y="794" font-family="Arial, Helvetica, sans-serif" font-size="8" fill="#666">FAM-GCP-AVB | gcp_vps30_wall_field_001 | v3 Parametric Renderer</text>
</svg>