<?xml version="1.0" encoding="UTF-8"?>
<svg xmlns="http://www.w3.org/2000/svg" viewBox="0 0 1056 816" width="1056" height="816">
  <defs>
    <pattern id="concrete-stipple" patternUnits="userSpaceOnUse" width="10" height="10">
      <circle cx="2" cy="3" r="0.5" fill="#CCC"/><circle cx="7" cy="8" r="0.5" fill="#CCC"/><circle cx="5" cy="1" r="0.5" fill="#CCC"/>
    </pattern>
    <pattern id="insulation-hatch" patternUnits="userSpaceOnUse" width="8" height="8">
      <path d="M0,8 L8,0" stroke="#999" stroke-width="0.5" fill="none"/>
    </pattern>
  </defs>
  <rect width="1056" height="816" fill="#FFFFFF"/>
  <text x="528" y="408" font-family="Arial, Helvetica, sans-serif" font-size="48" fill="#CCC" opacity="0.3" text-anchor="middle" transform="rotate(-25 528 408)">DRAFT FOR REVIEW</text>
  <text x="60" y="40" font-family="Arial, Helvetica, sans-serif" font-size="16" font-weight="bold" fill="#000">Barrett PMMA — Equipment Curb</text>
  <text x="60" y="58" font-family="Arial, Helvetica, sans-serif" font-size="11" fill="#333">Section Detail — Rendered from parametric geometry JSON</text>
  <rect x="130.0" y="477.0" width="500.0" height="180.0" fill="#F0F0F0" stroke="#000000" stroke-width="1.5"/>
  <rect x="130.0" y="477.0" width="500.0" height="180.0" fill="url(#concrete-stipple)" opacity="0.4"/>
  <rect x="130.0" y="417.0" width="500.0" height="60.0" fill="#E8E8E8" stroke="#000000" stroke-width="1"/>
  <rect x="130.0" y="417.0" width="500.0" height="60.0" fill="url(#insulation-hatch)" opacity="0.4"/>
  <rect x="230.0" y="177.0" width="180.0" height="240.0" fill="#F0F0F0" stroke="#000000" stroke-width="1.5"/>
  <rect x="230.0" y="177.0" width="180.0" height="240.0" fill="url(#concrete-stipple)" opacity="0.4"/>
  <text x="320.0" y="297.0" font-family="Arial, Helvetica, sans-serif" font-size="8" fill="#555" text-anchor="middle">Curb Frame</text>
  <path d="M110.0,417.0 L230.0,417.0 L230.0,297.0 Z" fill="#FAFAFA" stroke="#000000" stroke-width="0.75"/>
  <line x1="140.0" y1="414.0" x2="230.0" y2="414.0" stroke="#333333" stroke-width="2"/>
  <line x1="233.0" y1="297.0" x2="233.0" y2="177.0" stroke="#333333" stroke-width="2"/>
  <line x1="140.0" y1="411.0" x2="230.0" y2="411.0" stroke="#333333" stroke-width="1.5" stroke-dasharray="4 2"/>
  <rect x="225.0" y="169.0" width="190.0" height="8.0" fill="#E0E0E0" stroke="#000000" stroke-width="1"/>
  <text x="320.0" y="173.0" font-family="Arial, Helvetica, sans-serif" font-size="8" fill="#555" text-anchor="middle">Counter-Flashing</text>
  <line x1="445.0" y1="417.0" x2="445.0" y2="177.0" stroke="#666" stroke-width="0.5" stroke-dasharray="3 2"/>
  <line x1="440.0" y1="417.0" x2="450.0" y2="417.0" stroke="#666" stroke-width="0.75"/>
  <line x1="440.0" y1="177.0" x2="450.0" y2="177.0" stroke="#666" stroke-width="0.75"/>
  <text x="455.0" y="297.0" font-family="Arial, Helvetica, sans-serif" font-size="9" fill="#000">8" MIN</text>
  <text x="720" y="130" font-family="Arial, Helvetica, sans-serif" font-size="10" font-weight="bold" fill="#000">CALLOUT KEY</text>
  <line x1="720" y1="135" x2="920" y2="135" stroke="#000" stroke-width="0.5"/>
  <circle cx="430.0" cy="507.0" r="3" fill="#000"/>
  <line x1="430.0" y1="507.0" x2="710.0" y2="155.0" stroke="#000" stroke-width="0.5"/>
  <circle cx="726" cy="152" r="3" fill="#000"/>
  <text x="734" y="155" font-family="Arial, Helvetica, sans-serif" font-size="9" fill="#000"><tspan font-weight="bold">1.</tspan> Substrate / Deck</text>
  <circle cx="430.0" cy="447.0" r="3" fill="#000"/>
  <line x1="430.0" y1="447.0" x2="710.0" y2="175.0" stroke="#000" stroke-width="0.5"/>
  <circle cx="726" cy="172" r="3" fill="#000"/>
  <text x="734" y="175" font-family="Arial, Helvetica, sans-serif" font-size="9" fill="#000"><tspan font-weight="bold">2.</tspan> Insulation</text>
  <circle cx="320.0" cy="297.0" r="3" fill="#000"/>
  <line x1="320.0" y1="297.0" x2="710.0" y2="195.0" stroke="#000" stroke-width="0.5"/>
  <circle cx="726" cy="192" r="3" fill="#000"/>
  <text x="734" y="195" font-family="Arial, Helvetica, sans-serif" font-size="9" fill="#000"><tspan font-weight="bold">3.</tspan> Curb Frame</text>
  <circle cx="170.0" cy="357.0" r="3" fill="#000"/>
  <line x1="170.0" y1="357.0" x2="710.0" y2="215.0" stroke="#000" stroke-width="0.5"/>
  <circle cx="726" cy="212" r="3" fill="#000"/>
  <text x="734" y="215" font-family="Arial, Helvetica, sans-serif" font-size="9" fill="#000"><tspan font-weight="bold">4.</tspan> Cant Strip</text>
  <circle cx="185.0" cy="413.0" r="3" fill="#000"/>
  <line x1="185.0" y1="413.0" x2="710.0" y2="235.0" stroke="#000" stroke-width="0.5"/>
  <circle cx="726" cy="232" r="3" fill="#000"/>
  <text x="734" y="235" font-family="Arial, Helvetica, sans-serif" font-size="9" fill="#000"><tspan font-weight="bold">5.</tspan> PMMA System</text>
  <circle cx="185.0" cy="410.0" r="3" fill="#000"/>
  <line x1="185.0" y1="410.0" x2="710.0" y2="255.0" stroke="#000" stroke-width="0.5"/>
  <circle cx="726" cy="252" r="3" fill="#000"/>
  <text x="734" y="255" font-family="Arial, Helvetica, sans-serif" font-size="9" fill="#000"><tspan font-weight="bold">6.</tspan> Fleece</text>
  <circle cx="320.0" cy="173.0" r="3" fill="#000"/>
  <line x1="320.0" y1="173.0" x2="710.0" y2="275.0" stroke="#000" stroke-width="0.5"/>
  <circle cx="726" cy="272" r="3" fill="#000"/>
  <text x="734" y="275" font-family="Arial, Helvetica, sans-serif" font-size="9" fill="#000"><tspan font-weight="bold">7.</tspan> Counter-Flashing</text>
  <line x1="60" y1="760" x2="996" y2="760" stroke="#000" stroke-width="0.75"/>
  <text x="60" y="778" font-family="Arial, Helvetica, sans-serif" font-size="11" font-weight="bold" fill="#000">DETAIL ATLAS</text>
  <text x="190" y="778" font-family="Arial, Helvetica, sans-serif" font-size="9" fill="#333">CONSTRUCTION INTELLIGENCE</text>
  <text x="450" y="778" font-family="Arial, Helvetica, sans-serif" font-size="9" fill="#333">RamFlash PMMA | LF-CU-01</text>
  <text x="876" y="778" font-family="Arial, Helvetica, sans-serif" font-size="9" fill="#333">DRAFT | 2026-04-16</text>
  <text x="60" y="794" font-family="Arial, Helvetica, sans-serif" font-size="8" fill="#666">FAM-BARRETT-PMMA | barrett_pmma_equipment_curb_001 | Parametric Renderer Output</text>
</svg>