<?xml version="1.0" encoding="UTF-8"?>
<svg xmlns="http://www.w3.org/2000/svg" viewBox="0 0 1056 816" width="1056" height="816">
  <defs>
    <pattern id="concrete-stipple" patternUnits="userSpaceOnUse" width="10" height="10">
      <circle cx="2" cy="3" r="0.5" fill="#CCC"/><circle cx="7" cy="8" r="0.5" fill="#CCC"/><circle cx="5" cy="1" r="0.5" fill="#CCC"/>
    </pattern>
    <pattern id="insulation-hatch" patternUnits="userSpaceOnUse" width="8" height="8">
      <path d="M0,8 L8,0" stroke="#999" stroke-width="0.5" fill="none"/>
    </pattern>
  </defs>
  <rect width="1056" height="816" fill="#FFFFFF"/>
  <text x="528" y="408" font-family="Arial, Helvetica, sans-serif" font-size="48" fill="#CCC" opacity="0.3" text-anchor="middle" transform="rotate(-25 528 408)">DRAFT FOR REVIEW</text>
  <text x="60" y="40" font-family="Arial, Helvetica, sans-serif" font-size="16" font-weight="bold" fill="#000">Barrett PMMA — Crack / Control Joint</text>
  <text x="60" y="58" font-family="Arial, Helvetica, sans-serif" font-size="11" fill="#333">Section Detail — Rendered from parametric geometry JSON</text>
  <rect x="125.0" y="368.0" width="230.0" height="100.0" fill="#F0F0F0" stroke="#000000" stroke-width="1.5"/>
  <rect x="125.0" y="368.0" width="230.0" height="100.0" fill="url(#concrete-stipple)" opacity="0.4"/>
  <rect x="385.0" y="368.0" width="230.0" height="100.0" fill="#F0F0F0" stroke="#000000" stroke-width="1.5"/>
  <rect x="385.0" y="368.0" width="230.0" height="100.0" fill="url(#concrete-stipple)" opacity="0.4"/>
  <rect x="355.0" y="368.0" width="30.0" height="100.0" fill="#FAFAFA" stroke="#000000" stroke-width="0.75"/>
  <circle cx="370.0" cy="388.0" r="5.0" fill="#FAFAFA" stroke="#000000" stroke-width="0.75"/>
  <rect x="285.0" y="358.0" width="180.0" height="8.0" fill="none" stroke="#333333" stroke-width="2"/>
  <rect x="300.0" y="360.0" width="150.0" height="4.0" fill="none" stroke="#333333" stroke-width="1.5"/>
  <line x1="305.0" y1="343.0" x2="485.0" y2="343.0" stroke="#666" stroke-width="0.5" stroke-dasharray="3 2"/>
  <line x1="300.0" y1="343.0" x2="310.0" y2="343.0" stroke="#666" stroke-width="0.75"/>
  <line x1="480.0" y1="343.0" x2="490.0" y2="343.0" stroke="#666" stroke-width="0.75"/>
  <text x="405.0" y="343.0" font-family="Arial, Helvetica, sans-serif" font-size="9" fill="#000">6" TOTAL</text>
  <text x="720" y="130" font-family="Arial, Helvetica, sans-serif" font-size="10" font-weight="bold" fill="#000">CALLOUT KEY</text>
  <line x1="720" y1="135" x2="920" y2="135" stroke="#000" stroke-width="0.5"/>
  <circle cx="225.0" cy="418.0" r="3" fill="#000"/>
  <line x1="225.0" y1="418.0" x2="710.0" y2="155.0" stroke="#000" stroke-width="0.5"/>
  <circle cx="726" cy="152" r="3" fill="#000"/>
  <text x="734" y="155" font-family="Arial, Helvetica, sans-serif" font-size="9" fill="#000"><tspan font-weight="bold">1.</tspan> Substrate</text>
  <circle cx="370.0" cy="388.0" r="3" fill="#000"/>
  <line x1="370.0" y1="388.0" x2="710.0" y2="175.0" stroke="#000" stroke-width="0.5"/>
  <circle cx="726" cy="172" r="3" fill="#000"/>
  <text x="734" y="175" font-family="Arial, Helvetica, sans-serif" font-size="9" fill="#000"><tspan font-weight="bold">2.</tspan> Backer Rod</text>
  <circle cx="375.0" cy="362.0" r="3" fill="#000"/>
  <line x1="375.0" y1="362.0" x2="710.0" y2="195.0" stroke="#000" stroke-width="0.5"/>
  <circle cx="726" cy="192" r="3" fill="#000"/>
  <text x="734" y="195" font-family="Arial, Helvetica, sans-serif" font-size="9" fill="#000"><tspan font-weight="bold">3.</tspan> PMMA Membrane</text>
  <circle cx="375.0" cy="362.0" r="3" fill="#000"/>
  <line x1="375.0" y1="362.0" x2="710.0" y2="215.0" stroke="#000" stroke-width="0.5"/>
  <circle cx="726" cy="212" r="3" fill="#000"/>
  <text x="734" y="215" font-family="Arial, Helvetica, sans-serif" font-size="9" fill="#000"><tspan font-weight="bold">4.</tspan> Fleece Strip</text>
  <line x1="60" y1="760" x2="996" y2="760" stroke="#000" stroke-width="0.75"/>
  <text x="60" y="778" font-family="Arial, Helvetica, sans-serif" font-size="11" font-weight="bold" fill="#000">DETAIL ATLAS</text>
  <text x="190" y="778" font-family="Arial, Helvetica, sans-serif" font-size="9" fill="#333">CONSTRUCTION INTELLIGENCE</text>
  <text x="450" y="778" font-family="Arial, Helvetica, sans-serif" font-size="9" fill="#333">RamFlash PMMA | LF-CJ-01</text>
  <text x="876" y="778" font-family="Arial, Helvetica, sans-serif" font-size="9" fill="#333">DRAFT | 2026-04-16</text>
  <text x="60" y="794" font-family="Arial, Helvetica, sans-serif" font-size="8" fill="#666">FAM-BARRETT-PMMA | barrett_pmma_crack_control_001 | Parametric Renderer Output</text>
</svg>