<?xml version="1.0" encoding="UTF-8"?>
<svg xmlns="http://www.w3.org/2000/svg" viewBox="0 0 1056 816" width="1056" height="816">
  <defs>
    <pattern id="concrete-stipple" patternUnits="userSpaceOnUse" width="10" height="10">
      <circle cx="2" cy="3" r="0.5" fill="#CCCCCC"/>
      <circle cx="7" cy="8" r="0.5" fill="#CCCCCC"/>
      <circle cx="5" cy="1" r="0.5" fill="#CCCCCC"/>
    </pattern>
    <pattern id="insulation-hatch" patternUnits="userSpaceOnUse" width="8" height="8">
      <path d="M0,8 L8,0" stroke="#999999" stroke-width="0.5" fill="none"/>
    </pattern>
    <pattern id="fleece-diagonal" patternUnits="userSpaceOnUse" width="6" height="6">
      <path d="M0,6 L6,0" stroke="#333333" stroke-width="0.75" fill="none"/>
    </pattern>
  </defs>
  <rect width="1056" height="816" fill="#FFFFFF"/>
  <text x="528" y="408" font-family="Arial, Helvetica, sans-serif" font-size="48" fill="#CCC" opacity="0.3" text-anchor="middle" transform="rotate(-25 528 408)">DRAFT FOR REVIEW</text>
  <text x="60" y="40" font-family="Arial, Helvetica, sans-serif" font-size="16" font-weight="bold" fill="#000">Barrett PMMA — Expansion Joint</text>
  <text x="60" y="58" font-family="Arial, Helvetica, sans-serif" font-size="11" fill="#333">Section Detail — Rendered from parametric geometry (v3)</text>
  <line x1="60" y1="66" x2="620" y2="66" stroke="#000" stroke-width="0.5"/>
  <rect x="120.0" y="374.0" width="220.0" height="100.0" fill="#F0F0F0" stroke="#000000" stroke-width="1.5"/>
  <rect x="120.0" y="374.0" width="220.0" height="100.0" fill="url(#concrete-stipple)" opacity="0.4"/>
  <rect x="400.0" y="374.0" width="220.0" height="100.0" fill="#F0F0F0" stroke="#000000" stroke-width="1.5"/>
  <rect x="400.0" y="374.0" width="220.0" height="100.0" fill="url(#concrete-stipple)" opacity="0.4"/>
  <rect x="340.0" y="374.0" width="60.0" height="100.0" fill="#FAFAFA" stroke="#000000" stroke-width="0.75"/>
  <rect x="190.0" y="364.0" width="150.0" height="6.0" fill="#D8D8D8" stroke="#333333" stroke-width="2"/>
  <rect x="400.0" y="364.0" width="150.0" height="6.0" fill="#D8D8D8" stroke="#333333" stroke-width="2"/>
  <path d="M340.0,366.0 L355.0,369.0 L370.0,372.0 L385.0,369.0 L400.0,366.0" fill="none" stroke="#333333" stroke-width="1.5" stroke-dasharray="4 2"/>
  <rect x="330.0" y="352.0" width="80.0" height="12.0" fill="#E0E0E0" stroke="#000000" stroke-width="1"/>
  <text x="370.0" y="361.0" font-family="Arial, Helvetica, sans-serif" font-size="8" fill="#555" text-anchor="middle">Bellows / Cover Plate</text>
  <line x1="190.0" y1="344.0" x2="205.0" y2="344.0" stroke="#666" stroke-width="0.3" stroke-dasharray="2 2"/>
  <line x1="340.0" y1="344.0" x2="355.0" y2="344.0" stroke="#666" stroke-width="0.3" stroke-dasharray="2 2"/>
  <line x1="215.0" y1="344.0" x2="365.0" y2="344.0" stroke="#666" stroke-width="0.5" stroke-dasharray="3 2"/>
  <line x1="211.0" y1="344.0" x2="219.0" y2="344.0" stroke="#666" stroke-width="0.75"/>
  <line x1="361.0" y1="344.0" x2="369.0" y2="344.0" stroke="#666" stroke-width="0.75"/>
  <text x="298.0" y="347.0" font-family="Arial, Helvetica, sans-serif" font-size="9" fill="#000">6" MIN</text>
  <line x1="400.0" y1="344.0" x2="415.0" y2="344.0" stroke="#666" stroke-width="0.3" stroke-dasharray="2 2"/>
  <line x1="550.0" y1="344.0" x2="565.0" y2="344.0" stroke="#666" stroke-width="0.3" stroke-dasharray="2 2"/>
  <line x1="425.0" y1="344.0" x2="575.0" y2="344.0" stroke="#666" stroke-width="0.5" stroke-dasharray="3 2"/>
  <line x1="421.0" y1="344.0" x2="429.0" y2="344.0" stroke="#666" stroke-width="0.75"/>
  <line x1="571.0" y1="344.0" x2="579.0" y2="344.0" stroke="#666" stroke-width="0.75"/>
  <text x="508.0" y="347.0" font-family="Arial, Helvetica, sans-serif" font-size="9" fill="#000">6" MIN</text>
  <text x="700" y="130" font-family="Arial, Helvetica, sans-serif" font-size="10" font-weight="bold" fill="#000">CALLOUT KEY</text>
  <line x1="700" y1="135" x2="920" y2="135" stroke="#000" stroke-width="0.5"/>
  <rect x="60" y="700" width="400" height="22" rx="3" fill="#FAFAFA" stroke="#000" stroke-width="0.75"/>
  <text x="68" y="715" font-family="Arial, Helvetica, sans-serif" font-size="8" fill="#000"><tspan font-weight="bold">NOTE: </tspan>CRITICAL: FLEECE LOOSE-LAID — DO NOT BRIDGE JOINT</text>
  <line x1="60" y1="760" x2="996" y2="760" stroke="#000" stroke-width="0.75"/>
  <text x="60" y="778" font-family="Arial, Helvetica, sans-serif" font-size="11" font-weight="bold" fill="#000">DETAIL ATLAS</text>
  <text x="190" y="778" font-family="Arial, Helvetica, sans-serif" font-size="9" fill="#333">CONSTRUCTION INTELLIGENCE</text>
  <text x="450" y="778" font-family="Arial, Helvetica, sans-serif" font-size="9" fill="#333">RamFlash PMMA | LF-EJ-01</text>
  <text x="876" y="778" font-family="Arial, Helvetica, sans-serif" font-size="9" fill="#333">DRAFT | 2026-04-16</text>
  <text x="60" y="794" font-family="Arial, Helvetica, sans-serif" font-size="8" fill="#666">FAM-BARRETT-PMMA | barrett_pmma_expansion_joint_001 | v3 Parametric Renderer</text>
</svg>