<?xml version="1.0" encoding="UTF-8"?>
<svg xmlns="http://www.w3.org/2000/svg" viewBox="0 0 1056 816" width="1056" height="816">
  <defs>
    <style>
      .title { font-family: 'JetBrains Mono', monospace; font-size: 14px; font-weight: bold; fill: #00E5FF; }
      .label { font-family: 'JetBrains Mono', monospace; font-size: 10px; fill: #B0B7BD; }
      .dim { font-family: 'JetBrains Mono', monospace; font-size: 9px; fill: #4A657D; }
      .callout-num { font-family: 'JetBrains Mono', monospace; font-size: 11px; font-weight: bold; fill: #0A0D11; }
      .watermark { font-family: 'JetBrains Mono', monospace; font-size: 60px; fill: #FF4444; opacity: 0.08; }
      .bottom-bar { font-family: 'JetBrains Mono', monospace; font-size: 9px; fill: #4A657D; }
      .bottom-bar-title { font-family: 'JetBrains Mono', monospace; font-size: 9px; fill: #00E5FF; }
    </style>
  </defs>

  <!-- Background -->
  <rect width="1056" height="816" fill="#0A0D11"/>

  <!-- DRAFT Watermark -->
  <text x="528" y="450" class="watermark" text-anchor="middle" transform="rotate(-30, 528, 450)">DRAFT</text>

  <!-- Title Block -->
  <text x="40" y="40" class="title">Barrett PMMA — Equipment Curb</text>
  <line x1="40" y1="50" x2="400" y2="50" stroke="#00E5FF" stroke-width="1" opacity="0.4"/>
  <text x="40" y="68" class="label" opacity="0.6">SECTION DETAIL — EQUIPMENT CURB FLASHING</text>

  <!-- Deck / Substrate base -->
  <rect x="120" y="520" width="600" height="40" fill="#1A1D21" stroke="#4A657D" stroke-width="1"/>
  <line x1="140" y1="520" x2="160" y2="560" stroke="#4A657D" stroke-width="0.3" opacity="0.4"/>
  <line x1="180" y1="520" x2="200" y2="560" stroke="#4A657D" stroke-width="0.3" opacity="0.4"/>
  <line x1="220" y1="520" x2="240" y2="560" stroke="#4A657D" stroke-width="0.3" opacity="0.4"/>
  <line x1="260" y1="520" x2="280" y2="560" stroke="#4A657D" stroke-width="0.3" opacity="0.4"/>
  <line x1="300" y1="520" x2="320" y2="560" stroke="#4A657D" stroke-width="0.3" opacity="0.4"/>
  <line x1="340" y1="520" x2="360" y2="560" stroke="#4A657D" stroke-width="0.3" opacity="0.4"/>
  <line x1="380" y1="520" x2="400" y2="560" stroke="#4A657D" stroke-width="0.3" opacity="0.4"/>
  <line x1="420" y1="520" x2="440" y2="560" stroke="#4A657D" stroke-width="0.3" opacity="0.4"/>
  <line x1="460" y1="520" x2="480" y2="560" stroke="#4A657D" stroke-width="0.3" opacity="0.4"/>
  <line x1="500" y1="520" x2="520" y2="560" stroke="#4A657D" stroke-width="0.3" opacity="0.4"/>
  <line x1="540" y1="520" x2="560" y2="560" stroke="#4A657D" stroke-width="0.3" opacity="0.4"/>
  <line x1="580" y1="520" x2="600" y2="560" stroke="#4A657D" stroke-width="0.3" opacity="0.4"/>
  <line x1="620" y1="520" x2="640" y2="560" stroke="#4A657D" stroke-width="0.3" opacity="0.4"/>
  <line x1="660" y1="520" x2="680" y2="560" stroke="#4A657D" stroke-width="0.3" opacity="0.4"/>

  <!-- Insulation layer on deck -->
  <rect x="120" y="490" width="600" height="30" fill="#22262C" stroke="#4A657D" stroke-width="1"/>
  <circle cx="140" cy="505" r="1" fill="#4A657D" opacity="0.3"/>
  <circle cx="160" cy="500" r="1" fill="#4A657D" opacity="0.3"/>
  <circle cx="180" cy="510" r="1" fill="#4A657D" opacity="0.3"/>
  <circle cx="200" cy="503" r="1" fill="#4A657D" opacity="0.3"/>
  <circle cx="220" cy="507" r="1" fill="#4A657D" opacity="0.3"/>
  <circle cx="240" cy="498" r="1" fill="#4A657D" opacity="0.3"/>
  <circle cx="260" cy="512" r="1" fill="#4A657D" opacity="0.3"/>
  <circle cx="280" cy="502" r="1" fill="#4A657D" opacity="0.3"/>
  <circle cx="300" cy="508" r="1" fill="#4A657D" opacity="0.3"/>
  <circle cx="320" cy="497" r="1" fill="#4A657D" opacity="0.3"/>
  <circle cx="340" cy="505" r="1" fill="#4A657D" opacity="0.3"/>
  <circle cx="360" cy="510" r="1" fill="#4A657D" opacity="0.3"/>
  <circle cx="380" cy="499" r="1" fill="#4A657D" opacity="0.3"/>
  <circle cx="400" cy="506" r="1" fill="#4A657D" opacity="0.3"/>
  <circle cx="420" cy="502" r="1" fill="#4A657D" opacity="0.3"/>
  <circle cx="440" cy="509" r="1" fill="#4A657D" opacity="0.3"/>
  <circle cx="460" cy="498" r="1" fill="#4A657D" opacity="0.3"/>
  <circle cx="480" cy="505" r="1" fill="#4A657D" opacity="0.3"/>
  <circle cx="500" cy="511" r="1" fill="#4A657D" opacity="0.3"/>
  <circle cx="520" cy="500" r="1" fill="#4A657D" opacity="0.3"/>
  <circle cx="540" cy="507" r="1" fill="#4A657D" opacity="0.3"/>

  <!-- Wood Curb Frame -->
  <rect x="380" y="300" width="80" height="190" fill="#2C3136" stroke="#4A657D" stroke-width="1.5"/>
  <line x1="390" y1="310" x2="390" y2="480" stroke="#4A657D" stroke-width="0.4" opacity="0.3"/>
  <line x1="405" y1="305" x2="405" y2="485" stroke="#4A657D" stroke-width="0.4" opacity="0.3"/>
  <line x1="420" y1="310" x2="420" y2="480" stroke="#4A657D" stroke-width="0.4" opacity="0.3"/>
  <line x1="435" y1="305" x2="435" y2="485" stroke="#4A657D" stroke-width="0.4" opacity="0.3"/>
  <line x1="448" y1="310" x2="448" y2="480" stroke="#4A657D" stroke-width="0.4" opacity="0.3"/>

  <!-- Cant Strips at base of curb -->
  <polygon points="380,490 380,460 350,490" fill="#2C3136" stroke="#4A657D" stroke-width="1"/>
  <polygon points="460,490 460,460 490,490" fill="#2C3136" stroke="#4A657D" stroke-width="1"/>

  <!-- PMMA Primer (cyan, on surface) -->
  <line x1="120" y1="488" x2="350" y2="488" stroke="#00E5FF" stroke-width="3" opacity="0.7"/>
  <line x1="350" y1="488" x2="378" y2="458" stroke="#00E5FF" stroke-width="3" opacity="0.7"/>
  <line x1="378" y1="458" x2="378" y2="300" stroke="#00E5FF" stroke-width="3" opacity="0.7"/>
  <line x1="490" y1="488" x2="720" y2="488" stroke="#00E5FF" stroke-width="3" opacity="0.7"/>
  <line x1="490" y1="488" x2="462" y2="458" stroke="#00E5FF" stroke-width="3" opacity="0.7"/>
  <line x1="462" y1="458" x2="462" y2="300" stroke="#00E5FF" stroke-width="3" opacity="0.7"/>

  <!-- Fleece Reinforcement (orange) -->
  <line x1="130" y1="485" x2="348" y2="485" stroke="#FF6B35" stroke-width="2" stroke-dasharray="6,3"/>
  <line x1="348" y1="485" x2="375" y2="455" stroke="#FF6B35" stroke-width="2" stroke-dasharray="6,3"/>
  <line x1="375" y1="455" x2="375" y2="302" stroke="#FF6B35" stroke-width="2" stroke-dasharray="6,3"/>
  <line x1="492" y1="485" x2="710" y2="485" stroke="#FF6B35" stroke-width="2" stroke-dasharray="6,3"/>
  <line x1="492" y1="485" x2="465" y2="455" stroke="#FF6B35" stroke-width="2" stroke-dasharray="6,3"/>
  <line x1="465" y1="455" x2="465" y2="302" stroke="#FF6B35" stroke-width="2" stroke-dasharray="6,3"/>

  <!-- PMMA Membrane top coat (cyan solid) -->
  <line x1="120" y1="482" x2="346" y2="482" stroke="#00E5FF" stroke-width="3"/>
  <line x1="346" y1="482" x2="372" y2="452" stroke="#00E5FF" stroke-width="3"/>
  <line x1="372" y1="452" x2="372" y2="298" stroke="#00E5FF" stroke-width="3"/>
  <line x1="494" y1="482" x2="720" y2="482" stroke="#00E5FF" stroke-width="3"/>
  <line x1="494" y1="482" x2="468" y2="452" stroke="#00E5FF" stroke-width="3"/>
  <line x1="468" y1="452" x2="468" y2="298" stroke="#00E5FF" stroke-width="3"/>

  <!-- Counter-Flashing Cap -->
  <rect x="365" y="290" width="110" height="14" fill="#2C3136" stroke="#00E5FF" stroke-width="1.5"/>
  <line x1="365" y1="304" x2="362" y2="312" stroke="#00E5FF" stroke-width="1.5"/>
  <line x1="475" y1="304" x2="478" y2="312" stroke="#00E5FF" stroke-width="1.5"/>

  <!-- Dimension: 8 IN. MIN curb height -->
  <line x1="500" y1="300" x2="530" y2="300" stroke="#4A657D" stroke-width="0.5" stroke-dasharray="3,2"/>
  <line x1="500" y1="490" x2="530" y2="490" stroke="#4A657D" stroke-width="0.5" stroke-dasharray="3,2"/>
  <line x1="525" y1="305" x2="525" y2="485" stroke="#4A657D" stroke-width="0.8" stroke-dasharray="4,2"/>
  <line x1="520" y1="300" x2="530" y2="300" stroke="#4A657D" stroke-width="1"/>
  <line x1="520" y1="490" x2="530" y2="490" stroke="#4A657D" stroke-width="1"/>
  <polygon points="525,308 522,316 528,316" fill="#4A657D"/>
  <polygon points="525,482 522,474 528,474" fill="#4A657D"/>
  <text x="535" y="400" class="dim" transform="rotate(-90, 535, 400)" text-anchor="middle">8 IN. MIN</text>

  <!-- Callout 1: Deck/Substrate -->
  <circle cx="160" cy="540" r="3" fill="#4A657D" opacity="0.5"/>
  <line x1="160" y1="540" x2="60" y2="590" stroke="#4A657D" stroke-width="0.5"/>
  <circle cx="46" cy="590" r="8" fill="#00E5FF"/>
  <text x="46" y="594" class="callout-num" text-anchor="middle">1</text>
  <text x="60" y="594" class="label">Deck / Substrate</text>

  <!-- Callout 2: Insulation -->
  <circle cx="200" cy="505" r="3" fill="#4A657D" opacity="0.5"/>
  <line x1="200" y1="505" x2="60" y2="620" stroke="#4A657D" stroke-width="0.5"/>
  <circle cx="46" cy="620" r="8" fill="#00E5FF"/>
  <text x="46" y="624" class="callout-num" text-anchor="middle">2</text>
  <text x="60" y="624" class="label">Insulation</text>

  <!-- Callout 3: Wood Nailer/Curb -->
  <circle cx="420" cy="390" r="3" fill="#4A657D" opacity="0.5"/>
  <line x1="420" y1="390" x2="570" y2="200" stroke="#4A657D" stroke-width="0.5"/>
  <circle cx="570" cy="186" r="8" fill="#00E5FF"/>
  <text x="570" y="190" class="callout-num" text-anchor="middle">3</text>
  <text x="584" y="190" class="label">Wood Nailer / Curb</text>

  <!-- Callout 4: Cant Strip -->
  <circle cx="365" cy="478" r="3" fill="#4A657D" opacity="0.5"/>
  <line x1="365" y1="478" x2="60" y2="650" stroke="#4A657D" stroke-width="0.5"/>
  <circle cx="46" cy="650" r="8" fill="#00E5FF"/>
  <text x="46" y="654" class="callout-num" text-anchor="middle">4</text>
  <text x="60" y="654" class="label">Cant Strip</text>

  <!-- Callout 5: PMMA Primer -->
  <circle cx="250" cy="488" r="3" fill="#00E5FF" opacity="0.7"/>
  <line x1="250" y1="488" x2="60" y2="680" stroke="#4A657D" stroke-width="0.5"/>
  <circle cx="46" cy="680" r="8" fill="#00E5FF"/>
  <text x="46" y="684" class="callout-num" text-anchor="middle">5</text>
  <text x="60" y="684" class="label">PMMA Primer</text>

  <!-- Callout 6: Fleece Reinforcement -->
  <circle cx="270" cy="485" r="3" fill="#FF6B35" opacity="0.7"/>
  <line x1="270" y1="485" x2="570" y2="220" stroke="#4A657D" stroke-width="0.5"/>
  <circle cx="570" cy="216" r="8" fill="#FF6B35"/>
  <text x="570" y="220" class="callout-num" text-anchor="middle">6</text>
  <text x="584" y="220" class="label">Fleece Reinforcement</text>

  <!-- Callout 7: PMMA Membrane -->
  <circle cx="290" cy="482" r="3" fill="#00E5FF"/>
  <line x1="290" y1="482" x2="570" y2="250" stroke="#4A657D" stroke-width="0.5"/>
  <circle cx="570" cy="246" r="8" fill="#00E5FF"/>
  <text x="570" y="250" class="callout-num" text-anchor="middle">7</text>
  <text x="584" y="250" class="label">PMMA Membrane</text>

  <!-- Callout 8: Counter-Flashing -->
  <circle cx="440" cy="297" r="3" fill="#00E5FF" opacity="0.7"/>
  <line x1="440" y1="297" x2="570" y2="280" stroke="#4A657D" stroke-width="0.5"/>
  <circle cx="570" cy="276" r="8" fill="#00E5FF"/>
  <text x="570" y="280" class="callout-num" text-anchor="middle">8</text>
  <text x="584" y="280" class="label">Counter-Flashing</text>

  <!-- Callout Legend -->
  <rect x="760" y="120" width="260" height="280" fill="#0A0D11" stroke="#4A657D" stroke-width="0.5" rx="2"/>
  <text x="780" y="145" class="title" font-size="11">CALLOUT LEGEND</text>
  <line x1="780" y1="152" x2="1000" y2="152" stroke="#4A657D" stroke-width="0.5" opacity="0.4"/>
  <circle cx="790" cy="175" r="7" fill="#00E5FF"/><text x="790" y="179" class="callout-num" text-anchor="middle">1</text><text x="806" y="179" class="label">Deck / Substrate</text>
  <circle cx="790" cy="200" r="7" fill="#00E5FF"/><text x="790" y="204" class="callout-num" text-anchor="middle">2</text><text x="806" y="204" class="label">Insulation</text>
  <circle cx="790" cy="225" r="7" fill="#00E5FF"/><text x="790" y="229" class="callout-num" text-anchor="middle">3</text><text x="806" y="229" class="label">Wood Nailer / Curb</text>
  <circle cx="790" cy="250" r="7" fill="#00E5FF"/><text x="790" y="254" class="callout-num" text-anchor="middle">4</text><text x="806" y="254" class="label">Cant Strip</text>
  <circle cx="790" cy="275" r="7" fill="#00E5FF"/><text x="790" y="279" class="callout-num" text-anchor="middle">5</text><text x="806" y="279" class="label">PMMA Primer</text>
  <circle cx="790" cy="300" r="7" fill="#FF6B35"/><text x="790" y="304" class="callout-num" text-anchor="middle">6</text><text x="806" y="304" class="label">Fleece Reinforcement</text>
  <circle cx="790" cy="325" r="7" fill="#00E5FF"/><text x="790" y="329" class="callout-num" text-anchor="middle">7</text><text x="806" y="329" class="label">PMMA Membrane</text>
  <circle cx="790" cy="350" r="7" fill="#00E5FF"/><text x="790" y="354" class="callout-num" text-anchor="middle">8</text><text x="806" y="354" class="label">Counter-Flashing</text>

  <!-- Material Key -->
  <rect x="760" y="420" width="260" height="90" fill="#0A0D11" stroke="#4A657D" stroke-width="0.5" rx="2"/>
  <text x="780" y="445" class="title" font-size="11">MATERIAL KEY</text>
  <line x1="780" y1="452" x2="1000" y2="452" stroke="#4A657D" stroke-width="0.5" opacity="0.4"/>
  <line x1="780" y1="470" x2="810" y2="470" stroke="#00E5FF" stroke-width="3"/>
  <text x="820" y="474" class="label">PMMA System (Primer/Membrane)</text>
  <line x1="780" y1="492" x2="810" y2="492" stroke="#FF6B35" stroke-width="2" stroke-dasharray="6,3"/>
  <text x="820" y="496" class="label">Fleece Reinforcement</text>

  <!-- Bottom Bar -->
  <rect x="0" y="786" width="1056" height="30" fill="#0A0D11" stroke="#4A657D" stroke-width="0.5"/>
  <text x="40" y="805" class="bottom-bar-title">DETAIL ATLAS | CONSTRUCTION INTELLIGENCE</text>
  <text x="1016" y="805" class="bottom-bar" text-anchor="end">Barrett PMMA Emergency Packet | 2026-04-16</text>
  <text x="528" y="805" class="dim" text-anchor="middle">CONDITION 05 — EQUIPMENT CURB</text>
</svg>
