<?xml version="1.0" encoding="UTF-8"?>
<svg xmlns="http://www.w3.org/2000/svg" viewBox="0 0 1056 816" width="1056" height="816">
  <defs>
    <style>
      .title { font-family: 'JetBrains Mono', monospace; font-size: 14px; font-weight: bold; fill: #00E5FF; }
      .label { font-family: 'JetBrains Mono', monospace; font-size: 10px; fill: #B0B7BD; }
      .dim { font-family: 'JetBrains Mono', monospace; font-size: 9px; fill: #4A657D; }
      .callout-num { font-family: 'JetBrains Mono', monospace; font-size: 11px; font-weight: bold; fill: #0A0D11; }
      .watermark { font-family: 'JetBrains Mono', monospace; font-size: 60px; fill: #FF4444; opacity: 0.08; }
      .bottom-bar { font-family: 'JetBrains Mono', monospace; font-size: 9px; fill: #4A657D; }
      .bottom-bar-title { font-family: 'JetBrains Mono', monospace; font-size: 9px; fill: #00E5FF; }
      .ref-note { font-family: 'JetBrains Mono', monospace; font-size: 9px; fill: #FF6B35; }
    </style>
    <marker id="arrowhead" markerWidth="8" markerHeight="6" refX="8" refY="3" orient="auto">
      <polygon points="0,0 8,3 0,6" fill="#00E5FF"/>
    </marker>
  </defs>

  <!-- Background -->
  <rect width="1056" height="816" fill="#0A0D11"/>

  <!-- DRAFT Watermark -->
  <text x="528" y="450" class="watermark" text-anchor="middle" transform="rotate(-30, 528, 450)">DRAFT</text>

  <!-- Title Block -->
  <text x="40" y="40" class="title">Barrett PMMA — Tile / Overburden Assembly</text>
  <line x1="40" y1="50" x2="470" y2="50" stroke="#00E5FF" stroke-width="1" opacity="0.4"/>
  <text x="40" y="68" class="label" opacity="0.6">FULL LAYER STACK — SECTION DETAIL</text>

  <!-- Layer 1: Structural Slab (bottom) -->
  <rect x="150" y="530" width="550" height="70" fill="#1A1D21" stroke="#4A657D" stroke-width="1.5"/>
  <line x1="170" y1="540" x2="190" y2="595" stroke="#4A657D" stroke-width="0.3" opacity="0.3"/>
  <line x1="210" y1="540" x2="230" y2="595" stroke="#4A657D" stroke-width="0.3" opacity="0.3"/>
  <line x1="250" y1="540" x2="270" y2="595" stroke="#4A657D" stroke-width="0.3" opacity="0.3"/>
  <line x1="290" y1="540" x2="310" y2="595" stroke="#4A657D" stroke-width="0.3" opacity="0.3"/>
  <line x1="330" y1="540" x2="350" y2="595" stroke="#4A657D" stroke-width="0.3" opacity="0.3"/>
  <line x1="370" y1="540" x2="390" y2="595" stroke="#4A657D" stroke-width="0.3" opacity="0.3"/>
  <line x1="410" y1="540" x2="430" y2="595" stroke="#4A657D" stroke-width="0.3" opacity="0.3"/>
  <line x1="450" y1="540" x2="470" y2="595" stroke="#4A657D" stroke-width="0.3" opacity="0.3"/>
  <line x1="490" y1="540" x2="510" y2="595" stroke="#4A657D" stroke-width="0.3" opacity="0.3"/>
  <line x1="530" y1="540" x2="550" y2="595" stroke="#4A657D" stroke-width="0.3" opacity="0.3"/>
  <line x1="570" y1="540" x2="590" y2="595" stroke="#4A657D" stroke-width="0.3" opacity="0.3"/>
  <line x1="610" y1="540" x2="630" y2="595" stroke="#4A657D" stroke-width="0.3" opacity="0.3"/>
  <line x1="650" y1="540" x2="670" y2="595" stroke="#4A657D" stroke-width="0.3" opacity="0.3"/>
  <!-- Rebar -->
  <line x1="170" y1="570" x2="680" y2="570" stroke="#4A657D" stroke-width="1" stroke-dasharray="8,4" opacity="0.4"/>
  <circle cx="200" cy="570" r="3" fill="none" stroke="#4A657D" stroke-width="0.5" opacity="0.4"/>
  <circle cx="350" cy="570" r="3" fill="none" stroke="#4A657D" stroke-width="0.5" opacity="0.4"/>
  <circle cx="500" cy="570" r="3" fill="none" stroke="#4A657D" stroke-width="0.5" opacity="0.4"/>
  <circle cx="650" cy="570" r="3" fill="none" stroke="#4A657D" stroke-width="0.5" opacity="0.4"/>

  <!-- Layer 2: PMMA Primer -->
  <line x1="150" y1="527" x2="700" y2="527" stroke="#00E5FF" stroke-width="3" opacity="0.6"/>

  <!-- Layer 3: Fleece Reinforcement -->
  <line x1="150" y1="522" x2="700" y2="522" stroke="#FF6B35" stroke-width="2" stroke-dasharray="6,3"/>
  <rect x="150" y="519" width="550" height="6" fill="none" stroke="#FF6B35" stroke-width="0.5" opacity="0.2"/>

  <!-- Layer 4: PMMA Membrane -->
  <line x1="150" y1="516" x2="700" y2="516" stroke="#00E5FF" stroke-width="3"/>
  <rect x="150" y="508" width="550" height="10" fill="#00E5FF" opacity="0.08"/>

  <!-- Layer 5: Protection Board -->
  <rect x="150" y="480" width="550" height="28" fill="#22262C" stroke="#4A657D" stroke-width="1"/>
  <line x1="170" y1="480" x2="200" y2="508" stroke="#4A657D" stroke-width="0.3" opacity="0.2"/>
  <line x1="210" y1="480" x2="240" y2="508" stroke="#4A657D" stroke-width="0.3" opacity="0.2"/>
  <line x1="250" y1="480" x2="280" y2="508" stroke="#4A657D" stroke-width="0.3" opacity="0.2"/>
  <line x1="290" y1="480" x2="320" y2="508" stroke="#4A657D" stroke-width="0.3" opacity="0.2"/>
  <line x1="330" y1="480" x2="360" y2="508" stroke="#4A657D" stroke-width="0.3" opacity="0.2"/>
  <line x1="370" y1="480" x2="400" y2="508" stroke="#4A657D" stroke-width="0.3" opacity="0.2"/>
  <line x1="410" y1="480" x2="440" y2="508" stroke="#4A657D" stroke-width="0.3" opacity="0.2"/>
  <line x1="450" y1="480" x2="480" y2="508" stroke="#4A657D" stroke-width="0.3" opacity="0.2"/>
  <line x1="490" y1="480" x2="520" y2="508" stroke="#4A657D" stroke-width="0.3" opacity="0.2"/>
  <line x1="530" y1="480" x2="560" y2="508" stroke="#4A657D" stroke-width="0.3" opacity="0.2"/>
  <line x1="570" y1="480" x2="600" y2="508" stroke="#4A657D" stroke-width="0.3" opacity="0.2"/>
  <line x1="610" y1="480" x2="640" y2="508" stroke="#4A657D" stroke-width="0.3" opacity="0.2"/>
  <line x1="650" y1="480" x2="680" y2="508" stroke="#4A657D" stroke-width="0.3" opacity="0.2"/>

  <!-- Layer 6: Mortar Bed -->
  <rect x="150" y="440" width="550" height="40" fill="#2C3136" stroke="#4A657D" stroke-width="1"/>
  <circle cx="175" cy="455" r="1" fill="#4A657D" opacity="0.3"/>
  <circle cx="200" cy="465" r="1" fill="#4A657D" opacity="0.3"/>
  <circle cx="225" cy="450" r="1" fill="#4A657D" opacity="0.3"/>
  <circle cx="250" cy="468" r="1" fill="#4A657D" opacity="0.3"/>
  <circle cx="275" cy="452" r="1" fill="#4A657D" opacity="0.3"/>
  <circle cx="300" cy="462" r="1" fill="#4A657D" opacity="0.3"/>
  <circle cx="325" cy="448" r="1" fill="#4A657D" opacity="0.3"/>
  <circle cx="350" cy="470" r="1" fill="#4A657D" opacity="0.3"/>
  <circle cx="375" cy="455" r="1" fill="#4A657D" opacity="0.3"/>
  <circle cx="400" cy="463" r="1" fill="#4A657D" opacity="0.3"/>
  <circle cx="425" cy="450" r="1" fill="#4A657D" opacity="0.3"/>
  <circle cx="450" cy="467" r="1" fill="#4A657D" opacity="0.3"/>
  <circle cx="475" cy="453" r="1" fill="#4A657D" opacity="0.3"/>
  <circle cx="500" cy="461" r="1" fill="#4A657D" opacity="0.3"/>
  <circle cx="525" cy="449" r="1" fill="#4A657D" opacity="0.3"/>
  <circle cx="550" cy="466" r="1" fill="#4A657D" opacity="0.3"/>
  <circle cx="575" cy="454" r="1" fill="#4A657D" opacity="0.3"/>
  <circle cx="600" cy="462" r="1" fill="#4A657D" opacity="0.3"/>
  <circle cx="625" cy="451" r="1" fill="#4A657D" opacity="0.3"/>
  <circle cx="650" cy="464" r="1" fill="#4A657D" opacity="0.3"/>
  <circle cx="675" cy="456" r="1" fill="#4A657D" opacity="0.3"/>

  <!-- Layer 7: Tile/Pavers -->
  <rect x="150" y="400" width="78" height="40" fill="#2C3136" stroke="#4A657D" stroke-width="1.5"/>
  <rect x="232" y="400" width="78" height="40" fill="#2C3136" stroke="#4A657D" stroke-width="1.5"/>
  <rect x="314" y="400" width="78" height="40" fill="#2C3136" stroke="#4A657D" stroke-width="1.5"/>
  <rect x="396" y="400" width="78" height="40" fill="#2C3136" stroke="#4A657D" stroke-width="1.5"/>
  <rect x="478" y="400" width="78" height="40" fill="#2C3136" stroke="#4A657D" stroke-width="1.5"/>
  <rect x="560" y="400" width="78" height="40" fill="#2C3136" stroke="#4A657D" stroke-width="1.5"/>
  <rect x="642" y="400" width="58" height="40" fill="#2C3136" stroke="#4A657D" stroke-width="1.5"/>
  <line x1="228" y1="400" x2="228" y2="440" stroke="#4A657D" stroke-width="2" opacity="0.5"/>
  <line x1="310" y1="400" x2="310" y2="440" stroke="#4A657D" stroke-width="2" opacity="0.5"/>
  <line x1="392" y1="400" x2="392" y2="440" stroke="#4A657D" stroke-width="2" opacity="0.5"/>
  <line x1="474" y1="400" x2="474" y2="440" stroke="#4A657D" stroke-width="2" opacity="0.5"/>
  <line x1="556" y1="400" x2="556" y2="440" stroke="#4A657D" stroke-width="2" opacity="0.5"/>
  <line x1="638" y1="400" x2="638" y2="440" stroke="#4A657D" stroke-width="2" opacity="0.5"/>

  <!-- Slope arrow -->
  <line x1="250" y1="380" x2="650" y2="390" stroke="#00E5FF" stroke-width="1.5" marker-end="url(#arrowhead)"/>
  <text x="420" y="378" class="label" fill="#00E5FF" font-size="9" text-anchor="middle">SLOPE TO DRAIN</text>
  <text x="420" y="392" class="dim" text-anchor="middle">MIN 1/4 IN./FT</text>

  <!-- Callouts -->
  <circle cx="425" cy="565" r="3" fill="#4A657D" opacity="0.5"/>
  <line x1="425" y1="565" x2="760" y2="600" stroke="#4A657D" stroke-width="0.5"/>
  <circle cx="760" cy="596" r="8" fill="#00E5FF"/><text x="760" y="600" class="callout-num" text-anchor="middle">1</text>
  <text x="774" y="600" class="label">Structural Slab</text>

  <circle cx="425" cy="527" r="3" fill="#00E5FF" opacity="0.7"/>
  <line x1="425" y1="527" x2="760" y2="560" stroke="#4A657D" stroke-width="0.5"/>
  <circle cx="760" cy="556" r="8" fill="#00E5FF"/><text x="760" y="560" class="callout-num" text-anchor="middle">2</text>
  <text x="774" y="560" class="label">PMMA Primer</text>

  <circle cx="425" cy="522" r="3" fill="#FF6B35" opacity="0.7"/>
  <line x1="425" y1="522" x2="760" y2="535" stroke="#4A657D" stroke-width="0.5"/>
  <circle cx="760" cy="531" r="8" fill="#FF6B35"/><text x="760" y="535" class="callout-num" text-anchor="middle">3</text>
  <text x="774" y="535" class="label">Fleece Reinforcement</text>

  <circle cx="425" cy="516" r="3" fill="#00E5FF"/>
  <line x1="425" y1="516" x2="760" y2="510" stroke="#4A657D" stroke-width="0.5"/>
  <circle cx="760" cy="506" r="8" fill="#00E5FF"/><text x="760" y="510" class="callout-num" text-anchor="middle">4</text>
  <text x="774" y="510" class="label">PMMA Membrane (Waterproofing)</text>

  <circle cx="425" cy="494" r="3" fill="#4A657D" opacity="0.5"/>
  <line x1="425" y1="494" x2="760" y2="485" stroke="#4A657D" stroke-width="0.5"/>
  <circle cx="760" cy="481" r="8" fill="#00E5FF"/><text x="760" y="485" class="callout-num" text-anchor="middle">5</text>
  <text x="774" y="485" class="label">Protection Board</text>

  <circle cx="425" cy="460" r="3" fill="#4A657D" opacity="0.5"/>
  <line x1="425" y1="460" x2="760" y2="460" stroke="#4A657D" stroke-width="0.5"/>
  <circle cx="760" cy="456" r="8" fill="#00E5FF"/><text x="760" y="460" class="callout-num" text-anchor="middle">6</text>
  <text x="774" y="460" class="label">Mortar Bed</text>

  <circle cx="425" cy="420" r="3" fill="#4A657D" opacity="0.5"/>
  <line x1="425" y1="420" x2="760" y2="435" stroke="#4A657D" stroke-width="0.5"/>
  <circle cx="760" cy="431" r="8" fill="#00E5FF"/><text x="760" y="435" class="callout-num" text-anchor="middle">7</text>
  <text x="774" y="435" class="label">Tile / Pavers</text>

  <!-- Callout Legend -->
  <rect x="760" y="120" width="260" height="255" fill="#0A0D11" stroke="#4A657D" stroke-width="0.5" rx="2"/>
  <text x="780" y="145" class="title" font-size="11">LAYER STACK (BOTTOM TO TOP)</text>
  <line x1="780" y1="152" x2="1000" y2="152" stroke="#4A657D" stroke-width="0.5" opacity="0.4"/>
  <circle cx="790" cy="175" r="7" fill="#00E5FF"/><text x="790" y="179" class="callout-num" text-anchor="middle">1</text><text x="806" y="179" class="label">Structural Slab</text>
  <circle cx="790" cy="200" r="7" fill="#00E5FF"/><text x="790" y="204" class="callout-num" text-anchor="middle">2</text><text x="806" y="204" class="label">PMMA Primer</text>
  <circle cx="790" cy="225" r="7" fill="#FF6B35"/><text x="790" y="229" class="callout-num" text-anchor="middle">3</text><text x="806" y="229" class="label">Fleece Reinforcement</text>
  <circle cx="790" cy="250" r="7" fill="#00E5FF"/><text x="790" y="254" class="callout-num" text-anchor="middle">4</text><text x="806" y="254" class="label">PMMA Membrane</text>
  <circle cx="790" cy="275" r="7" fill="#00E5FF"/><text x="790" y="279" class="callout-num" text-anchor="middle">5</text><text x="806" y="279" class="label">Protection Board</text>
  <circle cx="790" cy="300" r="7" fill="#00E5FF"/><text x="790" y="304" class="callout-num" text-anchor="middle">6</text><text x="806" y="304" class="label">Mortar Bed</text>
  <circle cx="790" cy="325" r="7" fill="#00E5FF"/><text x="790" y="329" class="callout-num" text-anchor="middle">7</text><text x="806" y="329" class="label">Tile / Pavers</text>

  <!-- HYPPOCOAT 250 reference -->
  <rect x="760" y="395" width="260" height="55" fill="#0A0D11" stroke="#FF6B35" stroke-width="0.5" rx="2"/>
  <text x="780" y="415" class="ref-note">REF: HYPPOCOAT 250</text>
  <text x="780" y="430" class="label" font-size="8">For parking deck variant, substitute</text>
  <text x="780" y="442" class="label" font-size="8">PMMA membrane with HYPPOCOAT 250.</text>

  <!-- Material Key -->
  <rect x="760" y="630" width="260" height="80" fill="#0A0D11" stroke="#4A657D" stroke-width="0.5" rx="2"/>
  <text x="780" y="655" class="title" font-size="11">MATERIAL KEY</text>
  <line x1="780" y1="662" x2="1000" y2="662" stroke="#4A657D" stroke-width="0.5" opacity="0.4"/>
  <line x1="780" y1="680" x2="810" y2="680" stroke="#00E5FF" stroke-width="3"/>
  <text x="820" y="684" class="label">PMMA System (Primer/Membrane)</text>
  <line x1="780" y1="700" x2="810" y2="700" stroke="#FF6B35" stroke-width="2" stroke-dasharray="6,3"/>
  <text x="820" y="704" class="label">Fleece Reinforcement</text>

  <!-- Bottom Bar -->
  <rect x="0" y="786" width="1056" height="30" fill="#0A0D11" stroke="#4A657D" stroke-width="0.5"/>
  <text x="40" y="805" class="bottom-bar-title">DETAIL ATLAS | CONSTRUCTION INTELLIGENCE</text>
  <text x="1016" y="805" class="bottom-bar" text-anchor="end">Barrett PMMA Emergency Packet | 2026-04-16</text>
  <text x="528" y="805" class="dim" text-anchor="middle">CONDITION 09 — TILE / OVERBURDEN ASSEMBLY</text>
</svg>
